<svg preserveAspectRatio="none" width="100%" height="100%" overflow="visible" style="display: block;" viewBox="0 0 6.81081 10.1041" fill="none" xmlns="http://www.w3.org/2000/svg">
<path id="Vector" d="M5.60561 0.826827C5.0357 0.275609 4.3023 0 3.40541 0C2.50851 0 1.77511 0.275609 1.20521 0.826827C0.719386 1.29396 0.397064 1.85452 0.238238 2.50851C0.0794128 3.1625 0 4.01268 0 5.05906C0 6.10544 0.0794128 6.95562 0.238238 7.60961C0.397064 8.2636 0.719386 8.82416 1.20521 9.29129C1.76577 9.83317 2.49917 10.1041 3.40541 10.1041C4.31164 10.1041 5.04505 9.83317 5.60561 9.29129C6.09142 8.82416 6.41375 8.2636 6.57257 7.60961C6.7314 6.95562 6.81081 6.10544 6.81081 5.05906C6.81081 4.01268 6.7314 3.1625 6.57257 2.50851C6.41375 1.85452 6.09142 1.29396 5.60561 0.826827ZM2.08809 1.54154C2.41508 1.24258 2.85419 1.09309 3.40541 1.09309C3.95662 1.09309 4.39573 1.24258 4.72272 1.54154C5.05906 1.84985 5.28328 2.25158 5.3954 2.74675C5.50751 3.24191 5.56356 4.01268 5.56356 5.05906C5.56356 5.67568 5.55189 6.15449 5.52853 6.4955C5.50517 6.8365 5.42809 7.20787 5.2973 7.60961C5.1665 8.01134 4.97497 8.329 4.72272 8.56256C4.39573 8.86153 3.95662 9.01101 3.40541 9.01101C2.85419 9.01101 2.41508 8.86153 2.08809 8.56256C1.72372 8.22623 1.49249 7.78946 1.39439 7.25225C1.2963 6.71505 1.24725 5.98398 1.24725 5.05906C1.24725 3.99399 1.3033 3.22089 1.41542 2.73974C1.52753 2.25859 1.75175 1.85919 2.08809 1.54154Z" fill="var(--fill-0, #C5CCB6)"/>
</svg>
