<svg preserveAspectRatio="none" width="100%" height="100%" overflow="visible" style="display: block;" viewBox="0 0 49 48.9863" fill="none" xmlns="http://www.w3.org/2000/svg">
<path id="Vector" d="M23.303 0.523158C15.347 0.913158 8.41003 5.17716 4.33803 11.4692L12.03 17.2932L3.13703 13.5432C1.39825 16.931 0.494151 20.6852 0.500028 24.4932C0.500028 28.4382 1.45203 32.1602 3.13803 35.4432L12.03 31.6932L4.33903 37.5182C8.41103 43.8092 15.349 48.0732 23.303 48.4642L24.5 38.8932L25.698 48.4632C33.652 48.0712 40.588 43.8072 44.661 37.5162L36.971 31.6932L45.861 35.4422C47.6003 32.0548 48.5051 28.3009 48.5 24.4932C48.5 20.5492 47.549 16.8272 45.863 13.5452L36.972 17.2932L44.662 11.4692C40.592 5.17816 33.655 0.913159 25.7 0.522159L24.502 10.0942L23.303 0.523158Z" stroke="var(--stroke-0, #C5CCB6)"/>
</svg>
