<svg xmlns="http://www.w3.org/2000/svg" width="151" height="67" viewBox="0 0 37.8 16.8"><svg x="0.9071999999999999" y="1.7925600000000002" width="35.93646" height="13.844880000000002" viewBox="0 0 35.9373 13.8447" overflow="visible">
<path id="Vector" d="M5.6742 4.0516L5.8212 7.21H5.488C5.089 6.27247 4.676 5.6322 4.249 5.2892C3.8206 4.94573 3.39407 4.774 2.9694 4.774C2.70153 4.774 2.47287 4.86477 2.2834 5.0463C2.0944 5.2283 1.99967 5.43807 1.9992 5.6756C1.9992 5.8534 2.06453 6.0249 2.1952 6.1901C2.40473 6.46077 2.98947 6.9244 3.9494 7.581C4.9098 8.23853 5.5419 8.79643 5.8457 9.2547C6.14903 9.71343 6.3007 10.2268 6.3007 10.7947C6.3007 11.3094 6.17353 11.8144 5.9192 12.3095C5.68036 12.7874 5.30522 13.1837 4.8412 13.4484C4.37181 13.7128 3.84129 13.8494 3.3026 13.8446C2.86487 13.8441 2.28013 13.7053 1.5484 13.4281C1.3524 13.3553 1.2187 13.3189 1.1473 13.3189C0.931233 13.3194 0.751567 13.4843 0.6083 13.8138H0.2842L0.1267 10.4874H0.4599C0.7539 11.3591 1.15757 12.0125 1.6709 12.4474C2.1833 12.8837 2.66817 13.1019 3.1255 13.1019C3.4391 13.1019 3.69577 13.0044 3.8955 12.8093C4.09383 12.6138 4.19323 12.3779 4.1937 12.1016C4.1937 11.7847 4.0957 11.5106 3.8997 11.2791C3.7037 11.0481 3.26597 10.6983 2.5865 10.2298C1.58737 9.5298 0.940567 8.99523 0.6461 8.6261C0.215367 8.08477 0 7.48743 0 6.8341C0 6.12057 0.243367 5.47517 0.7301 4.8979C1.21683 4.32063 1.9208 4.03177 2.842 4.0313C3.33853 4.0313 3.81873 4.15357 4.2826 4.3981C4.45947 4.49703 4.60297 4.5465 4.7131 4.5465C4.81343 4.55156 4.91288 4.52565 4.998 4.4723C5.0694 4.42283 5.18373 4.2826 5.341 4.0516H5.6742ZM14.8575 8.6058H9.8301C9.88937 9.83313 10.213 10.8038 10.801 11.5178C11.2518 12.0652 11.7938 12.3389 12.4271 12.3389C12.8191 12.3389 13.1752 12.2285 13.4953 12.0078C13.8154 11.7861 14.1584 11.3883 14.5243 10.8143L14.8575 11.0313C14.3605 12.0552 13.8117 12.7799 13.2111 13.2055C12.6105 13.6316 11.9147 13.8446 11.1237 13.8446C9.7657 13.8446 8.7367 13.3166 8.0367 12.2605C7.4753 11.4088 7.1946 10.3525 7.1946 9.0916C7.1946 7.54647 7.60783 6.3168 8.4343 5.4026C9.26077 4.4884 10.2291 4.0313 11.3393 4.0313C12.2666 4.0313 13.0718 4.41583 13.755 5.1849C14.4377 5.9549 14.8052 7.0952 14.8575 8.6058ZM12.4467 7.9429C12.4467 6.8803 12.3895 6.15067 12.2752 5.754C12.1613 5.35827 11.9835 5.0582 11.7418 4.8538C11.6046 4.7348 11.4214 4.6753 11.1923 4.6753C10.8526 4.6753 10.5749 4.84377 10.3593 5.1807C9.9743 5.76777 9.7818 6.57277 9.7818 7.5957V7.9422L12.4467 7.9429ZM18.8468 4.4751V6.5751C19.4544 5.61703 19.9869 4.98143 20.4442 4.6683C20.9015 4.35517 21.3425 4.19837 21.7672 4.1979C22.1331 4.1979 22.4254 4.312 22.6443 4.5402C22.8636 4.767 22.9733 5.08853 22.9733 5.5048C22.9733 5.94767 22.8669 6.29113 22.6541 6.5352C22.4418 6.7788 22.1853 6.9006 21.8848 6.9006C21.539 6.9006 21.2385 6.7886 20.9832 6.5646C20.7284 6.33967 20.5784 6.21437 20.5331 6.1887C20.465 6.14762 20.3865 6.12675 20.307 6.1285C20.118 6.1285 19.9383 6.20107 19.768 6.3462C19.5001 6.57113 19.2976 6.8915 19.1604 7.3073C18.9518 7.94757 18.8473 8.65387 18.8468 9.4262V11.5542L18.8573 12.11C18.8573 12.4857 18.8802 12.7265 18.9259 12.8324C19.0038 13.0102 19.1198 13.1406 19.2738 13.2237C19.4269 13.3058 19.6866 13.3572 20.0529 13.3777V13.7333H15.1039V13.377C15.5024 13.3439 15.7719 13.2333 15.9124 13.0452C16.0524 12.8567 16.1224 12.3597 16.1224 11.5542V6.4358C16.1224 5.90753 16.0967 5.57083 16.0454 5.4257C15.9791 5.2409 15.8842 5.10557 15.7605 5.0197C15.6359 4.93383 15.4173 4.87457 15.1046 4.8419V4.4751H18.8468ZM25.4366 7.035C25.9252 7.035 26.3935 7.231 26.7393 7.5803C27.0844 7.9289 27.2783 8.4021 27.2783 8.8963V11.8125C27.2783 12.4658 27.3534 12.8833 27.5037 13.0648C27.654 13.2468 27.948 13.3509 28.3857 13.377V13.7333H23.4367V13.377C23.8427 13.363 24.1432 13.2442 24.3383 13.0207C24.4694 12.8686 24.535 12.4658 24.535 11.8125V8.9656C24.535 8.31227 24.4599 7.8946 24.3096 7.7126C24.1593 7.53153 23.8686 7.4277 23.4374 7.4011V7.035H25.4366ZM32.459 5.4453V11.8713C32.459 12.4929 32.5243 12.8826 32.655 13.0403C32.8645 13.2848 33.2498 13.3971 33.8107 13.377V13.7333H28.3857V13.377C28.7973 13.37 29.1158 13.3224 29.2887 13.2335C29.4494 13.1577 29.5769 13.0258 29.6471 12.8625C29.7124 12.7038 29.7451 12.3734 29.7451 11.8713V5.4453H28.4116V4.4758H29.7444V3.7933L29.7346 3.3271C29.7346 2.3765 30.0792 1.58433 30.7685 0.9506C31.4578 0.316867 32.3902 0 33.5657 0C34.3693 0 34.9657 0.152133 35.3549 0.4564C35.7432 0.759733 35.9373 1.0962 35.9373 1.4658C35.9373 1.7626 35.8167 2.0202 35.5754 2.2386C35.3337 2.45653 35.0133 2.5655 34.6143 2.5655C34.2746 2.5655 34.0053 2.47613 33.8065 2.2974C33.6072 2.11913 33.5076 1.92103 33.5076 1.7031C33.5081 1.64383 33.5274 1.52203 33.5657 1.3377C33.5908 1.23384 33.604 1.12745 33.6049 1.0206C33.6049 0.881533 33.5659 0.778867 33.488 0.7126C33.3851 0.614718 33.2478 0.561389 33.1058 0.5642C33.0133 0.563649 32.922 0.584913 32.8393 0.626266C32.7566 0.66762 32.6848 0.727896 32.6298 0.8022C32.5033 0.960867 32.4399 1.2152 32.4394 1.5652L32.459 3.2977V4.4758H33.8107V5.4467L32.459 5.4453Z" fill="var(--fill-0, #0A1D08)"/>
</svg><svg x="24.54354" y="4.2252" width="3.938759999999994" height="3.9799200000000003" viewBox="0 0 3.93931 3.98062" overflow="visible">
<path id="Vector" fill-rule="evenodd" clip-rule="evenodd" d="M3.28612 0.425286C3.34212 0.409186 3.41072 0.432286 3.46112 0.483386C3.51152 0.534486 3.53462 0.603786 3.51852 0.660486L3.34352 1.28629C3.19073 1.83502 3.24607 2.42087 3.49892 2.93129L3.91892 3.77899C3.95042 3.84199 3.94482 3.90779 3.90632 3.94699C3.86712 3.98619 3.80132 3.99179 3.73972 3.96029L2.90112 3.53539C2.39747 3.27997 1.81593 3.22422 1.27292 3.37929L0.653417 3.55569C0.597417 3.57179 0.528817 3.54869 0.478417 3.49759C0.428017 3.44649 0.404917 3.37719 0.420317 3.32049L0.595317 2.69469C0.748322 2.14603 0.69323 1.56019 0.440619 1.04969L0.0206177 0.201986C-0.0108823 0.138986 -0.00598125 0.073186 0.0332187 0.033986C0.0724187 -0.00591405 0.138218 -0.010814 0.199118 0.019986L1.03772 0.444886C1.54242 0.700386 2.12272 0.756386 2.66662 0.601686L3.28612 0.425286Z" fill="var(--fill-0, #0A1D08)"/>
</svg></svg>