<svg xmlns="http://www.w3.org/2000/svg" width="439" height="148" viewBox="0 0 109.85 36.91"><svg x="1.8454799999999998" y="2.022668" width="106.609425" height="32.901574" viewBox="0 0 106.612 32.9014" overflow="visible">
<path id="Vector" d="M11.3102 0H14.5564V0.611645H13.9448C13.8382 0.611645 13.6507 0.734091 13.3824 0.978983C13.1143 1.22329 12.9799 1.41487 12.9799 1.54142V10.8637C12.9799 10.9914 13.114 11.1789 13.3824 11.4262C13.6507 11.6722 13.8382 11.7953 13.9448 11.7953H14.5564V12.4043H9.76698V11.79H10.3777C10.4844 11.79 10.6672 11.6667 10.9261 11.42C11.1839 11.1739 11.3128 10.9865 11.3128 10.8576V1.8323L6.8107 12.6257L2.31388 1.64511V10.8602C2.31447 10.9891 2.44248 11.1766 2.69792 11.4226C2.95277 11.6687 3.13907 11.7926 3.24629 11.7926H3.85442V12.4016H0V11.79H0.610766C0.739657 11.79 0.9327 11.6667 1.1899 11.42C1.4465 11.1739 1.57422 10.9865 1.57305 10.8576V1.54054C1.57305 1.41399 1.44533 1.22651 1.1899 0.978105C0.933872 0.732626 0.740829 0.610473 0.610766 0.611645H0V0H3.59693L7.32568 9.28628H7.42234L11.3102 0ZM19.0225 11.1485C19.5697 11.181 20.1151 11.0592 20.5964 10.7969C20.9962 10.524 21.3259 10.1606 21.5587 9.73623H22.0746C21.8445 10.5325 21.4062 11.253 20.8047 11.8234C20.1444 12.3711 19.3007 12.6475 18.4443 12.5967C17.935 12.6149 17.4285 12.5137 16.9652 12.3013C16.502 12.0889 16.0948 11.7712 15.7762 11.3734C15.1086 10.5478 14.7557 9.51202 14.7805 8.45054C14.7509 7.88232 14.8349 7.3139 15.0276 6.77853C15.2203 6.24315 15.5178 5.75158 15.9028 5.33256C16.2471 4.96255 16.665 4.66855 17.1296 4.4694C17.5942 4.27024 18.0952 4.17033 18.6007 4.17606C19.1503 4.16248 19.6969 4.26116 20.2071 4.46606C20.6703 4.66379 21.0947 4.94237 21.4603 5.2895L20.2897 7.12883L19.8064 7.15871C19.9163 6.61121 19.8833 6.04464 19.7106 5.51359C19.6081 5.26657 19.4257 5.06107 19.1927 4.92995C18.9596 4.79882 18.6892 4.74967 18.4249 4.79034C18.0803 4.7686 17.736 4.83709 17.4259 4.98904C17.1158 5.141 16.8507 5.37116 16.6568 5.65684C16.2427 6.34439 16.0412 7.13905 16.0776 7.94084C16.055 8.77131 16.3349 9.58172 16.8651 10.2213C17.1315 10.5285 17.464 10.7714 17.8376 10.9319C18.2112 11.0925 18.6163 11.1665 19.0225 11.1485ZM26.9906 12.4016H22.137V11.79H22.7574C22.8857 11.79 23.0785 11.6667 23.3357 11.42C23.5923 11.1739 23.7203 10.9865 23.7197 10.8576V1.54054C23.7203 1.41399 23.5923 1.22651 23.3357 0.978105C23.0782 0.732041 22.8778 0.611645 22.7574 0.611645H22.1379V0H26.9906V0.611645H26.3789C26.2506 0.611645 26.0579 0.734091 25.8007 0.978983C25.5432 1.22329 25.4167 1.41487 25.4167 1.54142V6.61912L29.8502 1.66972C29.9354 1.56251 29.8502 1.36038 29.6252 1.06071C29.4003 0.761041 29.2166 0.611645 29.1103 0.611645H28.5153V0H33.0112V0.611645H32.4005C32.0982 0.715343 31.8205 0.880558 31.5858 1.09674C31.1552 1.42893 30.9004 1.64511 30.8125 1.72508L27.7964 4.96786L32.1342 10.7258C32.3451 10.9718 32.5877 11.1871 32.8548 11.3673C33.071 11.5659 33.3294 11.71 33.6123 11.7873H34.5114C34.724 11.7434 34.9174 11.6309 35.0597 11.4666C35.2952 11.2504 35.4133 11.0676 35.4139 10.9182V5.84841C35.4139 5.71952 35.2958 5.54757 35.0597 5.33256C34.917 5.16848 34.7243 5.05579 34.5114 5.0118H34.0263V4.40103H36.8859V10.9235C36.8859 11.0735 37.0092 11.2563 37.2558 11.4719C37.3982 11.6274 37.581 11.739 37.7849 11.7926H38.7832C38.8904 11.7926 39.0574 11.6863 39.2964 11.4719C39.5331 11.258 39.6509 11.0752 39.6497 10.9235V5.84841C39.6497 5.71952 39.5316 5.54757 39.2955 5.33256C39.0606 5.11872 38.8898 5.0118 38.7832 5.0118H38.2673V4.40103H40.8071L41.1278 6.03208C41.5641 5.57253 42.0309 5.14299 42.5251 4.7464C43.0282 4.36823 43.6459 4.17461 44.2748 4.19803C44.5701 4.19282 44.8633 4.24718 45.1371 4.35786C45.4108 4.46854 45.6594 4.63326 45.8681 4.84219C46.0874 5.0598 46.2591 5.32056 46.3724 5.60798C46.4857 5.89539 46.5381 6.20319 46.5263 6.51191V10.9235C46.5263 11.0735 46.6441 11.2563 46.8796 11.4719C47.116 11.6889 47.2856 11.7926 47.3928 11.7926H47.9078V12.4016H43.6992V11.79H44.1439C44.3566 11.7454 44.5491 11.6328 44.6923 11.4692C44.9278 11.2522 45.0455 11.072 45.0455 10.9208V6.61912C45.0614 6.25909 44.9465 5.90547 44.7221 5.62344C44.6019 5.48982 44.4527 5.3855 44.2859 5.31847C44.1191 5.25145 43.9391 5.2235 43.7598 5.23677C43.1241 5.25608 42.5107 5.47602 42.0075 5.86511C41.4205 6.28166 41.1273 6.62967 41.1278 6.90913V10.9235C41.1278 11.0735 41.2456 11.2563 41.4811 11.4719C41.6244 11.6362 41.8168 11.7487 42.0295 11.7926H42.4794V12.4016H30.983L26.6698 6.20169L25.4167 7.55153V10.8602C25.4161 10.9891 25.5441 11.1766 25.8007 11.4226C26.0585 11.6687 26.2512 11.792 26.3789 11.7926H26.9906V12.4016ZM31.2949 26.3851L31.2572 26.3464C31.6661 26.6892 32.0791 27.0319 32.4963 27.3746C32.9134 27.7168 33.3575 28.0495 33.8285 28.3729H34.5667V29.0145H33.2169C32.6676 29.0233 32.1228 28.9266 31.6104 28.7262C31.0638 28.4816 30.5637 28.1441 30.1323 27.7288C29.646 28.2183 29.0596 28.5969 28.4134 28.8387C27.6653 29.0982 26.877 29.2226 26.0854 29.206C25.0793 29.2111 24.1054 28.8518 23.3436 28.1945C22.9498 27.8762 22.6347 27.4714 22.4227 27.0116C22.2107 26.5518 22.1075 26.0493 22.1212 25.5432C22.1125 24.7899 22.3015 24.0475 22.6695 23.3901C23.0268 22.7594 23.5263 22.2208 24.1283 21.8171C23.84 21.451 23.5969 21.0515 23.4042 20.6272C23.2139 20.1811 23.1205 19.6998 23.13 19.215C23.1071 18.8372 23.1668 18.459 23.3051 18.1067C23.4433 17.7544 23.6568 17.4365 23.9306 17.1753C24.5428 16.6651 25.3258 16.4063 26.1215 16.4511C26.5797 16.4362 27.037 16.501 27.473 16.6427C27.7587 16.7605 28.0636 16.8273 28.3721 16.8378C28.4916 16.8402 28.6096 16.829 28.7262 16.8044C28.8236 16.7729 28.9045 16.704 28.9512 16.6128H29.4996V19.5357H28.9512C28.8657 18.9325 28.5752 18.3771 28.1286 17.9627C27.8793 17.6652 27.5668 17.427 27.2138 17.2656C26.8608 17.1041 26.4762 17.0234 26.0881 17.0294C25.5247 16.9993 24.9681 17.1637 24.5115 17.4952C24.3202 17.6517 24.1682 17.8509 24.0678 18.0768C23.9674 18.3026 23.9213 18.5489 23.9332 18.7958C23.9297 19.2791 24.1011 19.7475 24.4166 20.114C24.7619 20.5182 25.204 20.8267 25.7014 21.0139C26.4935 21.8727 27.35 22.7346 28.271 23.5993C29.1412 24.4168 30.0194 25.2256 30.9056 26.0257C31.1341 25.6592 31.3029 25.2585 31.4048 24.8393C31.505 24.3885 31.5542 23.9288 31.5507 23.4684C31.5611 23.2207 31.519 22.9737 31.4273 22.7435C31.3355 22.5133 31.1961 22.3051 31.0181 22.1326C30.6257 21.7861 30.1128 21.6078 29.5901 21.6361V21.0139H33.999V21.5921H33.5192C33.4114 21.5909 33.2019 21.7737 32.8909 22.1405C32.66 22.3566 32.498 22.636 32.4251 22.9437V22.9771C32.4037 23.594 32.2957 24.2049 32.1043 24.7918C31.9196 25.3602 31.6467 25.896 31.2958 26.3798L31.2949 26.3851ZM27.0864 28.249C27.5932 28.2561 28.0979 28.1804 28.5803 28.0249C29.0085 27.8811 29.4139 27.6769 29.7843 27.4186L29.6885 27.3553C28.7725 26.5383 27.873 25.703 26.9906 24.8498C26.0968 23.9847 25.2386 23.0835 24.4183 22.1484C24.1115 22.469 23.862 22.84 23.681 23.2451C23.4887 23.7354 23.401 24.2604 23.4235 24.7866C23.436 25.2464 23.5472 25.6981 23.7497 26.1111C23.9521 26.5242 24.241 26.8888 24.5967 27.1804C25.2594 27.8409 26.151 28.2208 27.0864 28.2411V28.249ZM35.9535 2.44306C35.6844 2.44529 35.4254 2.34104 35.2329 2.15306C35.1339 2.06385 35.0553 1.95447 35.0022 1.83228C34.9491 1.71009 34.9229 1.57794 34.9253 1.44475V1.41487C34.9176 1.27387 34.9412 1.13293 34.9944 1.00212C35.0475 0.87131 35.129 0.753875 35.2329 0.658221C35.4449 0.482594 35.7115 0.386487 35.9869 0.386487C36.2622 0.386487 36.5289 0.482594 36.7409 0.658221C36.8447 0.753875 36.9262 0.87131 36.9794 1.00212C37.0325 1.13293 37.0561 1.27387 37.0485 1.41487H37.0151C37.037 1.41487 37.0476 1.41487 37.0476 1.44475C37.0498 1.57779 37.0235 1.70977 36.9705 1.8318C36.9174 1.95383 36.8388 2.06307 36.74 2.15218C36.5581 2.33673 36.3094 2.44219 36.0493 2.44306H35.9535ZM44.1439 28.1778C45.0253 28.2288 45.9015 28.0047 46.6493 27.5363C47.298 27.0488 47.816 26.4085 48.1574 25.6724H48.805C48.45 26.7163 47.7885 27.629 46.9068 28.2912C46.0002 28.9393 44.9063 29.2723 43.7924 29.2394C42.9804 29.2686 42.1726 29.1107 41.4315 28.7779C40.6903 28.4451 40.0356 27.9463 39.5179 27.3201C38.4442 26.0396 37.8732 24.4122 37.9114 22.7416C37.8687 21.1161 38.3907 19.526 39.3887 18.2421C39.8735 17.6316 40.4959 17.1445 41.2051 16.8207C41.9143 16.4969 42.6901 16.3455 43.469 16.3791C44.049 16.3668 44.6272 16.4599 45.1738 16.6541C45.6343 16.8352 46.1247 16.9282 46.6195 16.9283C46.7733 16.9362 46.927 16.9081 47.0694 16.8457C47.1895 16.7836 47.2964 16.7042 47.3902 16.6076H47.8392V20.9805H47.2909C47.1983 20.0982 46.8528 19.2614 46.2961 18.5708C45.9988 18.1124 45.5882 17.7385 45.1039 17.4854C44.6197 17.2323 44.0783 17.1085 43.5322 17.1261C43.0664 17.1011 42.6004 17.1725 42.1634 17.3358C41.7264 17.4991 41.3278 17.7508 40.9925 18.0752C40.2845 18.9275 39.8972 20.0007 39.8975 21.1088V21.0455C39.8753 21.281 39.8589 21.5168 39.8483 21.7529C39.8483 21.9885 39.8307 22.2328 39.8307 22.4911C39.8307 22.7899 39.8307 23.0966 39.8641 23.4068C39.8975 23.7162 39.9081 24.0018 39.9274 24.2593C40.0131 25.3016 40.4557 26.2824 41.1806 27.0363C41.5667 27.4241 42.0303 27.7261 42.5411 27.9227C43.0518 28.1192 43.5983 28.2059 44.1448 28.177M54.2896 10.1528C54.3081 10.4872 54.2528 10.8217 54.1277 11.1324C54.0025 11.4431 53.8106 11.7225 53.5655 11.9508C53.0531 12.3916 52.3927 12.6217 51.7174 12.595C51.2765 12.6078 50.838 12.5257 50.4317 12.3542C50.1115 12.1974 49.76 12.1148 49.4035 12.1125C49.2809 12.1003 49.1576 12.128 49.052 12.1916L48.7945 12.4007H48.4219V9.57365H48.9043C48.9939 10.1245 49.2583 10.6319 49.6584 11.021C49.9127 11.3188 50.2317 11.5546 50.5909 11.7106C50.9501 11.8665 51.3402 11.9385 51.7314 11.9209C52.1331 11.942 52.5329 11.8524 52.8879 11.6634C53.0248 11.5762 53.1357 11.4537 53.209 11.3088C53.2823 11.1639 53.3153 11.002 53.3045 10.84C53.3195 10.6472 53.2812 10.454 53.1938 10.2815C53.1064 10.109 52.9732 9.96381 52.8089 9.86189C52.4833 9.66258 52.1451 9.48468 51.7965 9.32934C51.495 9.20367 51.2244 9.08591 50.9739 8.9787C50.6911 8.8577 50.407 8.73993 50.1215 8.62542C49.6676 8.41581 49.2546 8.12717 48.9017 7.77299C48.7372 7.59362 48.6098 7.38349 48.5269 7.15469C48.4439 6.9259 48.407 6.68295 48.4184 6.43985C48.3981 6.13505 48.4454 5.82954 48.5569 5.54515C48.6684 5.26077 48.8414 5.00452 49.0634 4.79473C49.4755 4.50219 49.9539 4.31666 50.4555 4.25484C50.9571 4.19302 51.4663 4.25685 51.9371 4.44058C52.2121 4.57767 52.5153 4.64973 52.822 4.65149C52.9157 4.65382 53.009 4.63738 53.0962 4.60315C53.1757 4.56781 53.2393 4.50425 53.2746 4.42476H53.692V6.89243H53.2087C53.1309 6.40492 52.9008 5.95455 52.5514 5.60587C52.3364 5.34339 52.0635 5.13427 51.7541 4.99492C51.4448 4.85556 51.1073 4.78975 50.7683 4.80264C50.3969 4.77364 50.0272 4.87665 49.7243 5.09352C49.6155 5.1827 49.5285 5.29558 49.47 5.42352C49.4115 5.55147 49.3831 5.69109 49.3868 5.83172C49.377 5.97939 49.4042 6.12717 49.4661 6.26162C49.5279 6.39608 49.6224 6.51293 49.741 6.60155C50.045 6.81246 50.3658 6.99525 50.7032 7.14992C51.0038 7.27646 51.2879 7.39364 51.5557 7.50144L52.4389 7.85471C52.8994 8.04805 53.323 8.32048 53.6912 8.65794C53.8947 8.84657 54.0547 9.07715 54.1603 9.33373C54.2659 9.59031 54.3146 9.86677 54.3028 10.144L54.2896 10.1528ZM56.3926 21.912C56.8013 22.3109 57.1203 22.7923 57.3282 23.3242C57.5361 23.8561 57.6282 24.4263 57.5983 24.9966C57.6272 25.5693 57.5348 26.1416 57.327 26.6761C57.1192 27.2106 56.8008 27.6951 56.3926 28.0979C55.6545 28.8308 54.6558 29.241 53.6156 29.2386C53.0946 29.2427 52.5779 29.1441 52.0951 28.9484C51.6122 28.7526 51.1727 28.4636 50.8017 28.0979C50.3938 27.6949 50.0757 27.2104 49.8683 26.6759C49.6608 26.1414 49.5686 25.5692 49.5977 24.9966C49.5669 24.452 49.6482 23.9068 49.8367 23.3949C50.0251 22.883 50.3167 22.4153 50.6933 22.0206C51.0698 21.626 51.5235 21.3129 52.026 21.1007C52.5285 20.8885 53.0693 20.7818 53.6147 20.7871C54.657 20.7796 55.66 21.1839 56.4058 21.912H56.3926ZM56.0059 26.3209V26.3842C56.027 26.1481 56.0425 25.9123 56.0525 25.6768C56.0625 25.4413 56.0677 25.2054 56.0683 24.9693C56.0683 24.7338 56.0683 24.5062 56.0525 24.2812C56.0358 24.0563 56.0279 23.8454 56.0059 23.6529C55.9558 23.0666 55.7129 22.5135 55.3152 22.0799C55.0883 21.8734 54.8216 21.7155 54.5314 21.6159C54.2412 21.5163 53.9338 21.4771 53.6279 21.5007C53.3289 21.4798 53.0287 21.5204 52.746 21.6198C52.4632 21.7193 52.2038 21.8755 51.9837 22.079C51.5903 22.503 51.3473 23.0446 51.292 23.6204V23.5791C51.2499 23.8017 51.2235 24.0267 51.213 24.254C51.213 24.4895 51.1963 24.725 51.1963 24.9579C51.1963 25.1917 51.1963 25.4237 51.213 25.6495C51.2223 25.8604 51.2487 26.0696 51.292 26.277C51.3562 26.85 51.5979 27.3896 51.9837 27.8184C52.199 28.0309 52.457 28.1953 52.7406 28.3006C53.0242 28.4059 53.3269 28.4497 53.6288 28.4292C53.9384 28.4561 54.2503 28.417 54.5437 28.3144C54.8372 28.2118 55.1055 28.0482 55.331 27.8342C55.7076 27.4121 55.9435 26.8832 56.0059 26.3209ZM58.6406 12.6117C58.1336 12.6216 57.631 12.5153 57.1715 12.301C56.7119 12.0867 56.3075 11.77 55.9892 11.3752C55.2946 10.5542 54.9231 9.50816 54.9443 8.43296C54.9112 7.33064 55.2896 6.25545 56.0059 5.41692C56.3236 5.02884 56.7267 4.7195 57.1837 4.51308C57.6408 4.30666 58.1394 4.20875 58.6406 4.22703C59.0295 4.20582 59.4185 4.26826 59.7813 4.41016C60.1441 4.55205 60.4722 4.7701 60.7435 5.04958C61.2471 5.58829 61.5389 6.29045 61.5661 7.02688L61.5986 7.60514L56.2634 8.03311C56.275 8.80304 56.5456 9.54662 57.0315 10.144C57.2756 10.4723 57.5963 10.7361 57.9655 10.9123C58.3348 11.0886 58.7414 11.1721 59.1503 11.1555C59.7026 11.1868 60.2529 11.0655 60.7409 10.8048C61.1384 10.5459 61.4647 10.1915 61.69 9.77401H62.1725C61.9683 10.5665 61.5442 11.2852 60.9492 11.8471C60.3019 12.3794 59.477 12.6466 58.6406 12.595V12.6117ZM58.6081 4.83604C58.2576 4.80667 57.9055 4.86968 57.5869 5.01878C57.2684 5.16789 56.9944 5.39788 56.7925 5.68584C56.4315 6.21364 56.2254 6.83188 56.1975 7.47068L60.2136 7.12795C60.2826 6.5903 60.2217 6.04396 60.0361 5.53468C59.8603 5.06013 59.3843 4.82168 58.6081 4.81934V4.83604ZM68.3091 28.4169C68.438 28.4169 68.6144 28.3044 68.8382 28.0794C69.0631 27.8544 69.1756 27.6781 69.1756 27.5504V23.1634C69.1904 22.821 69.0826 22.4844 68.8716 22.2143C68.7471 22.0826 68.5942 21.9809 68.4246 21.9169C68.255 21.853 68.0731 21.8285 67.8926 21.8452C67.3239 21.8643 66.7767 22.0669 66.3327 22.4226C65.8078 22.8098 65.5453 23.1318 65.5453 23.3884V27.5636C65.5453 27.6925 65.6578 27.8691 65.8828 28.0935C66.1083 28.3179 66.2747 28.4301 66.3819 28.4301H66.8653V29.0417H62.7525V28.4301H63.2007C63.3296 28.4301 63.5062 28.3179 63.7306 28.0935C63.9556 27.8691 64.068 27.6925 64.068 27.5636V23.1766C64.0856 22.8216 63.9714 22.4718 63.7473 22.195C63.6238 22.0656 63.4731 21.9653 63.306 21.9015C63.139 21.8376 62.9598 21.8118 62.7815 21.8259C62.1977 21.8451 61.6375 22.0603 61.1909 22.4366C60.6665 22.8426 60.4043 23.1854 60.4043 23.4648V27.5776C60.4043 27.7065 60.5168 27.8829 60.7418 28.1067C60.9673 28.3316 61.1446 28.4441 61.2735 28.4441H61.7234V29.0558H57.6106V28.4441H58.094C58.1994 28.4441 58.3673 28.3316 58.5896 28.1067C58.8119 27.8817 58.9271 27.7068 58.9271 27.5776V22.4586C58.9271 22.3315 58.8146 22.1604 58.5896 21.9454C58.3652 21.7321 58.1997 21.6255 58.0931 21.6255H57.6106V21.0139H60.0783L60.3991 22.557C60.8074 22.1235 61.2364 21.71 61.6847 21.3179C62.1549 20.9585 62.7393 20.7819 63.3298 20.8214C63.8347 20.8119 64.3294 20.9637 64.7421 21.2547C64.9475 21.4027 65.1196 21.5923 65.2472 21.811C65.3748 22.0297 65.4551 22.2728 65.4829 22.5245C65.9139 22.1072 66.364 21.7101 66.8319 21.3346C67.2965 20.9949 67.8634 20.8244 68.4383 20.8513C69.0203 20.8372 69.5848 21.051 70.0114 21.4471C70.2326 21.6668 70.4045 21.931 70.5157 22.2222C70.6269 22.5134 70.6749 22.825 70.6564 23.1362V27.5231C70.6564 27.6514 70.7689 27.8278 70.9939 28.0522C71.2183 28.2771 71.3838 28.3896 71.4904 28.3896H71.9737V29.0004H67.8609V28.3896L68.3091 28.4169ZM62.9441 5.93366C62.8102 5.72398 62.6417 5.53855 62.4458 5.38529C62.1728 5.14918 61.99 5.03113 61.8974 5.03113H61.5432V4.40103H65.881V5.0118H65.3687C65.2609 5.0118 65.1217 5.11872 64.9512 5.33256C64.808 5.48195 64.7175 5.67529 64.6937 5.88093L66.613 9.83201L68.3812 5.91169C68.3827 5.80384 68.3621 5.69683 68.3207 5.59723C68.2792 5.49764 68.2179 5.40757 68.1404 5.33256C67.9576 5.11872 67.8123 5.0118 67.7045 5.0118H67.1755V4.40103H70.4218V5.0118H70.0676C69.9604 5.0118 69.794 5.12428 69.5684 5.34926C69.3927 5.51008 69.2459 5.70078 69.1352 5.91169L66.3933 11.7267L64.0355 16.2596L63.3369 15.9028L65.7764 11.5L62.9441 5.93366ZM77.5014 20.81C77.9494 20.7927 78.3947 20.8862 78.7979 21.0823C79.201 21.2784 79.5496 21.5709 79.8126 21.934C80.3997 22.804 80.6879 23.841 80.6352 24.8894C80.6794 25.9931 80.3509 27.0795 79.7028 27.974C79.4359 28.3558 79.0799 28.6667 78.6656 28.8799C78.2514 29.0931 77.7914 29.202 77.3256 29.1973C76.7364 29.2273 76.151 29.0873 75.6392 28.7939C75.1869 28.4868 74.817 28.0734 74.5618 27.5899V31.4452C74.5618 31.5952 74.6795 31.778 74.9151 31.9936C75.1515 32.2107 75.3237 32.3144 75.4309 32.3144H75.9494V32.9014H71.7154V32.2897H72.2312C72.4386 32.2458 72.6258 32.1333 72.7602 31.969C72.9394 31.8367 73.0604 31.6402 73.0977 31.4206V22.4586C73.0977 22.3315 72.9852 22.1604 72.7602 21.9454C72.6255 21.7817 72.4388 21.6688 72.2312 21.6255H71.7154V20.9805H74.3175L74.575 22.6537C74.8677 22.0895 75.2922 21.6042 75.8123 21.2388C76.319 20.9263 76.9064 20.7698 77.5014 20.7889V20.81ZM79.1078 26.2383L79.1711 25.5968C79.1931 25.3837 79.204 25.1695 79.2036 24.9553C79.2036 24.7678 79.1928 24.5803 79.1711 24.3929C79.1488 24.2112 79.1277 24.034 79.1078 23.8612C79.0563 23.2987 78.8312 22.7662 78.4637 22.3373C78.2879 22.1529 78.0745 22.0085 77.8379 21.9139C77.6014 21.8192 77.3472 21.7766 77.0927 21.789C76.7962 21.7762 76.5002 21.8251 76.2235 21.9327C75.9468 22.0402 75.6955 22.2041 75.4854 22.4138C75.0675 22.855 74.7595 23.3885 74.5864 23.971V26.0608C74.5833 26.3604 74.6415 26.6574 74.7574 26.9337C74.8733 27.21 75.0445 27.4596 75.2604 27.6673C75.4739 27.8864 75.7302 28.0594 76.0134 28.1753C76.2965 28.2913 76.6005 28.3478 76.9064 28.3413H76.9389C77.2238 28.3633 77.5101 28.3213 77.7766 28.2183C78.0432 28.1154 78.2833 27.9541 78.4795 27.7464C78.8384 27.2999 79.057 26.7571 79.1078 26.1865V26.2383ZM97.2612 27.5574C97.2612 27.6863 97.3792 27.8626 97.6154 28.0864C97.8509 28.3114 98.0217 28.4239 98.1277 28.4239H98.6102V29.0356H94.4016V28.4239H94.8682C94.9772 28.4239 95.1424 28.3114 95.3832 28.0864C95.6249 27.8615 95.7374 27.6866 95.7374 27.5574V23.2003C95.7479 22.8488 95.6407 22.5034 95.4324 22.2205C95.3178 22.0827 95.172 21.9743 95.0071 21.9043C94.8421 21.8343 94.6629 21.8047 94.4842 21.818C93.8466 21.8393 93.2325 22.0641 92.7319 22.4595C92.1413 22.8901 91.8472 23.2328 91.8495 23.4877V27.5372C91.8495 27.6872 91.9673 27.87 92.2028 28.0856C92.3461 28.2499 92.5385 28.3624 92.7512 28.4063H93.2231V29.018H86.401L86.176 27.3483C85.838 27.7929 85.4633 28.2051 85.052 28.5847C84.6346 28.9767 84.0805 29.1902 83.508 29.1797C83.2382 29.1817 82.9708 29.1285 82.7223 29.0233C82.4739 28.9181 82.2496 28.7632 82.0632 28.568C81.8595 28.3614 81.7002 28.1152 81.5951 27.8447C81.4901 27.5741 81.4416 27.285 81.4525 26.995C81.422 26.6542 81.4887 26.3118 81.6449 26.0075C81.801 25.7031 82.0402 25.4492 82.3348 25.2752C82.8719 24.9641 83.4507 24.7315 84.0537 24.5844L86.1435 24.1652L86.176 23.2021C86.2006 22.7171 86.0401 22.2409 85.7269 21.8698C85.5183 21.684 85.2733 21.5437 85.0075 21.4577C84.7416 21.3718 84.4608 21.3421 84.1829 21.3707C83.9134 21.3388 83.6403 21.3818 83.3937 21.4949C83.147 21.6081 82.9363 21.7871 82.7847 22.0122C82.6647 22.2776 82.6095 22.5677 82.6237 22.8587C82.6379 23.1496 82.7211 23.433 82.8664 23.6854H82.2882L81.1915 22.0781C81.6306 21.646 82.1538 21.3089 82.7288 21.0877C83.3038 20.8665 83.9181 20.766 84.5335 20.7924C85.3209 20.766 86.096 20.9857 86.7516 21.4208C87.0443 21.6211 87.2806 21.8931 87.4382 22.2108C87.5957 22.5285 87.6692 22.8813 87.6515 23.2355V27.5398C87.6515 27.6687 87.7693 27.8398 88.0048 28.0531C88.2403 28.2675 88.4114 28.3753 88.518 28.3765H89.4829C89.6965 28.3325 89.8889 28.2183 90.0313 28.0531C90.2668 27.8392 90.3846 27.6681 90.3846 27.5398V22.4595C90.3846 22.3324 90.2668 22.1613 90.0313 21.9463C89.888 21.783 89.6956 21.6708 89.4829 21.6264H89.0005V20.9814H91.5393L91.8601 22.6546C92.2901 22.1964 92.7471 21.7676 93.231 21.368C93.7376 20.985 94.3621 20.7911 94.9965 20.8197C95.2911 20.8145 95.5838 20.8686 95.857 20.9788C96.1303 21.089 96.3786 21.253 96.5872 21.4612C96.8074 21.679 96.9798 21.9402 97.0936 22.2283C97.2074 22.5163 97.26 22.8249 97.248 23.1344L97.2612 27.5574ZM86.176 24.7092L84.2567 25.1917C83.8447 25.2589 83.4694 25.4685 83.196 25.784C82.9973 26.072 82.8957 26.4159 82.906 26.7656V26.7955C82.9029 26.9592 82.9324 27.1218 82.9929 27.2739C83.0534 27.426 83.1437 27.5645 83.2584 27.6813C83.3692 27.8006 83.504 27.895 83.654 27.9583C83.804 28.0216 83.9657 28.0524 84.1284 28.0487H84.175C84.6056 28.0311 85.0151 27.8606 85.3315 27.5688C85.6575 27.3078 85.9361 26.9923 86.154 26.6364L86.176 24.7092ZM106.612 21.013V21.6238H106.225C106.139 21.6238 105.984 21.7362 105.758 21.9612C105.588 22.1237 105.432 22.3007 105.293 22.4903L102.595 28.3387L100.184 32.8381L99.51 32.4848L101.92 28.0821L99.0935 22.5236C98.9581 22.3149 98.7895 22.1297 98.5943 21.9753C98.3201 21.7398 98.1497 21.6211 98.0653 21.6211H97.6786V21.013H102.016V21.6238H101.533C101.426 21.6238 101.281 21.731 101.1 21.9454C100.95 22.0924 100.853 22.2855 100.826 22.4938L102.745 26.4475L104.522 22.4823C104.522 22.3793 104.5 22.2773 104.459 22.183C104.417 22.0886 104.357 22.0038 104.281 21.934C104.099 21.7201 103.955 21.6132 103.848 21.6132H103.335V21.013H106.612Z" fill="var(--fill-0, #0A1D08)"/>
</svg></svg>