<svg xmlns="http://www.w3.org/2000/svg" width="300" height="56" viewBox="0 0 74.9 14"><svg x="1.37816" y="1.3468" width="28.169890000000002" height="10.886400000000002" viewBox="0 0 28.168 10.8864" overflow="visible">
<path id="Vector" fill-rule="evenodd" clip-rule="evenodd" d="M8.82143 0.7707C8.9353 0.506567 9.06223 0.2499 9.20223 0.000699949L9.20503 0.00560001C10.227 0.1778 11.2245 0.4844 12.166 0.9163C13.79 3.2907 14.5985 5.9717 14.3003 9.0643C13.2024 9.87565 11.9729 10.492 10.6659 10.8864C10.3713 10.491 10.1107 10.0713 9.88683 9.632C10.3138 9.471 10.7233 9.2771 11.1153 9.0447C11.011 8.97479 10.9105 8.89931 10.8143 8.8186C9.67772 9.35288 8.43725 9.62989 7.18133 9.62989C5.92541 9.62989 4.68494 9.35288 3.54833 8.8186L3.51473 8.8445C3.42793 8.9117 3.33903 8.97843 3.24803 9.0447C3.64003 9.2736 4.04953 9.4717 4.47303 9.6292C4.25043 10.0674 3.99003 10.4881 3.69463 10.8836C2.38747 10.4886 1.15806 9.87149 0.060231 9.0594C-0.191769 6.3924 0.315031 3.689 2.18823 0.9135C3.13231 0.480957 4.12894 0.173848 5.15273 0C5.29273 0.2492 5.42153 0.5068 5.53353 0.77C6.62345 0.607228 7.73151 0.607228 8.82143 0.77M3.49933 5.9822C3.49933 6.776 4.08593 7.4172 4.79433 7.4172C5.51533 7.4172 6.07393 6.7732 6.08513 5.9822C6.09633 5.1912 5.51813 4.5444 4.79083 4.5444C4.06283 4.5444 3.49933 5.1891 3.49933 5.9822ZM8.27333 5.9822C8.27333 6.776 8.85433 7.4172 9.56553 7.4172C10.2865 7.4172 10.8458 6.7732 10.857 5.9822C10.8682 5.1912 10.2928 4.5444 9.56553 4.5444C8.83753 4.5444 8.27333 5.1891 8.27333 5.9822ZM26.0358 1.9922C25.3232 1.6702 24.4515 1.50943 23.4206 1.5099H19.1464V9.184H23.114C24.2322 9.1854 25.169 9.01367 25.9245 8.6688C26.6143 8.3819 27.2026 7.89564 27.6143 7.2723C27.9832 6.6822 28.1743 5.9983 28.1673 5.3025C28.1807 4.60949 27.9959 3.92707 27.6346 3.3355C27.2498 2.73637 26.6923 2.268 26.0358 1.9922ZM24.6708 6.7116C24.2975 7.05833 23.7639 7.2317 23.0699 7.2317H21.8869V3.4608H23.2239C23.895 3.4622 24.3976 3.6288 24.7317 3.9606C25.0726 4.3176 25.2315 4.7873 25.2294 5.2913C25.2322 5.8359 25.053 6.3413 24.6708 6.7116Z" fill="var(--fill-0, #0A1D08)"/>
</svg><svg x="34.349140000000006" y="3.8275999999999994" width="14.433230000000009" height="6.925800000000001" viewBox="0 0 14.4368 6.9264" overflow="visible">
<path id="Vector" d="M0 6.02234C0.497 6.32404 1.036 6.54944 1.6002 6.69084C2.1966 6.84484 2.8098 6.92184 3.4258 6.92114C4.49727 6.92254 5.3214 6.72934 5.8982 6.34154C6.16902 6.17639 6.39197 5.94334 6.54496 5.66548C6.69795 5.38761 6.77567 5.07459 6.7704 4.75744C6.76947 4.15404 6.59423 3.69577 6.2447 3.38264C5.8947 3.0695 5.36387 2.85017 4.6522 2.72463L3.556 2.52724C3.35459 2.49492 3.15785 2.43827 2.9701 2.35854C2.92269 2.33704 2.88262 2.3021 2.85487 2.25805C2.82713 2.21401 2.81292 2.16278 2.814 2.11074C2.814 1.8774 3.15723 1.76074 3.8437 1.76074C4.312 1.75934 4.7782 1.82093 5.2297 1.94203C5.64682 2.04881 6.04724 2.21251 6.4197 2.42854V0.706535C6.02243 0.478228 5.59428 0.308476 5.1485 0.202535C4.59619 0.0662672 4.02895 -5.24507e-05 3.4601 0.00513498C2.85084 -0.00714506 2.24365 0.0801019 1.6625 0.263435C1.21106 0.39796 0.803028 0.649054 0.479498 0.991435C0.206269 1.29478 0.0573172 1.68991 0.0623005 2.09814C0.0413005 2.55384 0.211399 2.99764 0.531999 3.32104C0.848399 3.63137 1.38343 3.87404 2.1371 4.04904L3.4531 4.34514C3.6078 4.37174 3.7548 4.43614 3.8801 4.53134C3.91624 4.5671 3.94465 4.60991 3.96356 4.65712C3.98246 4.70432 3.99146 4.75491 3.99 4.80574C3.99 4.89674 3.9221 4.98424 3.7877 5.05284C3.5987 5.13194 3.3943 5.16764 3.1892 5.15644C2.59647 5.15166 2.00753 5.06137 1.4406 4.88834C0.92213 4.75066 0.433678 4.51807 0 4.20234V6.02234ZM7.9401 5.20824C8.28066 5.7562 8.77482 6.19193 9.3611 6.46124C10.0763 6.78668 10.8562 6.94515 11.6417 6.92464C12.6224 6.94564 13.5898 6.69504 14.4368 6.20084V4.25904C14.1498 4.42704 13.8418 4.55724 13.5226 4.64894C13.1719 4.75394 12.8079 4.80644 12.4418 4.80574C11.7334 4.80574 11.1928 4.67974 10.8199 4.42774C10.6488 4.32865 10.507 4.186 10.4089 4.0143C10.3108 3.8426 10.26 3.64799 10.2615 3.45026C10.2631 3.25253 10.317 3.05874 10.4178 2.88862C10.5186 2.71849 10.6626 2.5781 10.8353 2.48173C11.2194 2.23347 11.7514 2.10934 12.4313 2.10934C13.1382 2.10435 13.8304 2.31056 14.4193 2.70153V0.692535C13.696 0.231935 12.7864 0.0016349 11.6907 0.0016349C10.9075 -0.0176599 10.1294 0.134029 9.4108 0.446135C8.81987 0.703765 8.317 1.1283 7.9639 1.66764C7.63197 2.19566 7.46052 2.80872 7.4704 3.43234C7.46007 4.05631 7.62264 4.67096 7.9401 5.20824Z" fill="var(--fill-0, #0A1D08)"/>
</svg><svg x="49.54635000000001" y="3.8374" width="8.366329999999994" height="6.9076" viewBox="0 0 8.36389 6.90847" overflow="visible">
<path id="Vector" fill-rule="evenodd" clip-rule="evenodd" d="M0.498175 5.19837C0.851485 5.74595 1.35434 6.18079 1.94718 6.45137V6.44787C2.65536 6.75176 3.41794 6.90847 4.18857 6.90847C4.9592 6.90847 5.72179 6.75176 6.42997 6.44787C7.02124 6.1783 7.52164 5.74306 7.87057 5.19487C8.20045 4.65798 8.37133 4.03856 8.36338 3.40847C8.37454 2.78501 8.20325 2.17188 7.87057 1.64447C7.51744 1.11293 7.01879 0.694233 6.43417 0.438372C4.99319 -0.146124 3.38116 -0.146124 1.94017 0.438372C1.35382 0.696534 0.85349 1.11695 0.498175 1.65007C0.162784 2.17546 -0.0103269 2.78805 0.000476506 3.41127C-0.00730363 4.04223 0.165374 4.66227 0.498175 5.19837ZM5.67818 3.44767C5.68698 3.64211 5.65594 3.8363 5.58696 4.01831C5.51799 4.20032 5.41253 4.3663 5.27707 4.50607C5.13133 4.64377 4.95897 4.75021 4.77057 4.81882C4.58218 4.88744 4.38174 4.91679 4.18158 4.90507C3.98142 4.91566 3.78118 4.88579 3.59283 4.81723C3.40448 4.74867 3.23189 4.64285 3.08537 4.50607C2.95063 4.36589 2.84578 4.19978 2.77719 4.01784C2.7086 3.8359 2.67771 3.64192 2.68638 3.44767C2.67737 3.25528 2.70816 3.06311 2.77681 2.88316C2.84547 2.70321 2.95051 2.53937 3.08537 2.40187C3.38427 2.13097 3.77838 1.99027 4.18158 2.01197C4.38099 2.00027 4.58071 2.02875 4.7689 2.09572C4.95709 2.1627 5.1299 2.26681 5.27707 2.40187C5.55147 2.67837 5.69708 3.05847 5.67818 3.44767Z" fill="var(--fill-0, #0A1D08)"/>
</svg><svg x="58.90885000000001" y="3.9718" width="5.5950299999999995" height="6.557600000000001" viewBox="0 0 5.5888 6.55721" overflow="visible">
<path id="Vector" d="M4.5038 2.35931C4.88438 2.34317 5.26141 2.43828 5.5888 2.63301V0.262812C5.28637 0.0862014 4.94149 -0.00455684 4.5913 0.000311599C4.35676 -0.00422499 4.12391 0.0408198 3.90798 0.132498C3.69206 0.224175 3.49793 0.360419 3.3383 0.532311C3.01256 0.886045 2.7769 1.43578 2.6313 2.18151V0.145211H0V6.55721H2.6859V4.53981C2.6859 3.79454 2.84223 3.24481 3.1549 2.89061C3.46896 2.53641 3.9186 2.35908 4.5038 2.35861" fill="var(--fill-0, #0A1D08)"/>
</svg><svg x="64.98324000000001" y="2.6376" width="8.441229999999994" height="8.1116" viewBox="0 0 8.44143 8.11222" overflow="visible">
<path id="Vector" fill-rule="evenodd" clip-rule="evenodd" d="M4.71953 7.6853C5.18952 7.39694 5.5533 6.9639 5.75623 6.4512V7.8918H8.44143V0H5.75553V2.8574C5.31686 1.74673 4.4582 1.1914 3.17953 1.1914C2.59457 1.18187 2.0188 1.33765 1.51843 1.6408C1.03184 1.94392 0.640713 2.37824 0.390028 2.8938C0.117028 3.4566 -0.0159718 4.0768 0.00152823 4.7019C-0.00788577 5.30495 0.117179 5.90253 0.36763 6.4512C0.598111 6.94792 0.963972 7.36958 1.42323 7.6678C1.89726 7.96974 2.45035 8.12397 3.01223 8.1109C3.60964 8.12788 4.20022 7.98112 4.71953 7.6853ZM5.77303 4.6312C5.78031 4.82302 5.74746 5.01425 5.67658 5.19265C5.6057 5.37104 5.49836 5.53267 5.36143 5.6672C5.21423 5.80264 5.0414 5.90723 4.85313 5.97479C4.66485 6.04236 4.46496 6.07154 4.26523 6.0606C4.06892 6.07019 3.87269 6.04031 3.68813 5.97274C3.50357 5.90517 3.33444 5.80127 3.19073 5.6672C3.05477 5.53494 2.94803 5.37567 2.87738 5.19965C2.80673 5.02362 2.77374 4.83475 2.78053 4.6452C2.77307 4.45719 2.80538 4.26973 2.87534 4.09507C2.9453 3.9204 3.05135 3.76247 3.18653 3.6316C3.49372 3.38141 3.87779 3.24479 4.27398 3.24479C4.67017 3.24479 5.05423 3.38141 5.36143 3.6316C5.63513 3.8906 5.78493 4.2546 5.77303 4.6312Z" fill="var(--fill-0, #0A1D08)"/>
</svg><svg x="30.469320000000003" y="2.3954" width="2.681419999999996" height="8.1676" viewBox="0 0 2.6796 8.169" overflow="visible">
<path id="Vector" d="M2.6796 1.2033C2.6796 0.5383 2.0797 0 1.3405 0C0.601301 0 0.00139923 0.539 0.00139923 1.2026C0.00139923 1.8669 0.601301 2.4052 1.3405 2.4052C2.0797 2.4052 2.6796 1.8669 2.6796 1.2033ZM2.6796 3.2333C2.25542 3.41157 1.79992 3.5034 1.3398 3.5034C0.879679 3.5034 0.424182 3.41157 0 3.2333V8.169H2.6796V3.2333Z" fill="var(--fill-0, #0A1D08)"/>
</svg></svg>