<svg xmlns="http://www.w3.org/2000/svg" width="335" height="104" viewBox="0 0 83.79 25.935"><svg x="1.617147" y="5.088447" width="80.35461000000001" height="19.015542" viewBox="0 0 80.3586 19.0163" overflow="visible">
<path id="Vector" d="M8.70319 0V6.4249H2.80098V0.000997428H0V15.3376H2.80098V9.12114H8.70219V15.3376H11.5052V0H8.70319ZM20.4707 10.38C20.4707 10.9948 20.2265 11.5844 19.7917 12.0192C19.357 12.4539 18.7673 12.6982 18.1525 12.6982C17.5377 12.6982 16.948 12.4539 16.5133 12.0192C16.0786 11.5844 15.8343 10.9948 15.8343 10.38V3.81045H13.177V10.38C13.177 11.6983 13.7007 12.9625 14.6328 13.8947C15.565 14.8268 16.8292 15.3505 18.1475 15.3505C19.4658 15.3505 20.7301 14.8268 21.6622 13.8947C22.5944 12.9625 23.1181 11.6983 23.1181 10.38V3.81045H20.4707V10.38ZM40.1594 4.48875C40.1594 3.14213 41.0501 2.7142 42.0247 2.7142C42.8127 2.7142 43.8501 3.3127 44.5314 4.03987L46.271 1.98802C45.4022 0.811965 43.6406 0 42.1972 0C39.3145 0 37.2297 1.68877 37.2297 4.48775C37.2297 9.68074 43.5768 8.03187 43.5768 10.9386C43.5768 11.8353 42.706 12.6264 41.7105 12.6264C40.1384 12.6264 39.6287 11.8583 38.9075 11.0463L36.9753 13.0543C38.2122 14.5705 39.7354 15.3406 41.5598 15.3406C44.299 15.3406 46.5025 13.6318 46.5025 10.9605C46.5025 5.19498 40.1544 6.98649 40.1544 4.48675M79.4239 12.8877C77.8539 12.8877 77.407 12.2084 77.407 11.168V6.56255H79.8489V4.2284H77.406V1.15112L74.7127 2.36009V11.7416C74.7127 14.1406 76.3686 15.3495 78.6379 15.3495C78.995 15.3562 79.3491 15.3279 79.7002 15.2647L80.3586 12.8448C80.0613 12.8648 79.7202 12.8857 79.4229 12.8857M30.5843 3.88826C29.2676 3.88826 28.3499 4.2703 27.4602 5.14111V0.0937649H24.7998V9.45032C24.7998 12.9525 27.3315 15.3525 30.1774 15.3525C33.3345 15.3525 36.1115 12.9106 36.1115 9.62188C36.1115 6.37402 33.5559 3.89025 30.5843 3.89025M30.5674 12.6742C30.1707 12.6742 29.778 12.5961 29.4115 12.4443C29.0451 12.2925 28.7121 12.07 28.4316 11.7896C28.1512 11.5091 27.9287 11.1761 27.7769 10.8097C27.6251 10.4432 27.547 10.0505 27.547 9.6538C27.547 9.25716 27.6251 8.86439 27.7769 8.49794C27.9287 8.13148 28.1512 7.79851 28.4316 7.51804C28.7121 7.23757 29.0451 7.01508 29.4115 6.86329C29.778 6.7115 30.1707 6.63337 30.5674 6.63337C31.3685 6.63337 32.1367 6.9516 32.7032 7.51804C33.2696 8.08448 33.5878 8.85274 33.5878 9.6538C33.5878 10.4549 33.2696 11.2231 32.7032 11.7896C32.1367 12.356 31.3685 12.6742 30.5674 12.6742ZM59.4829 9.48223C59.4829 6.18749 56.7119 3.7506 53.5488 3.7506C50.7039 3.7506 48.1713 6.15058 48.1713 9.6538V19.0163H50.8316V13.961C51.7194 14.8308 52.6391 15.2139 53.9538 15.2139C56.9263 15.2139 59.4829 12.7301 59.4829 9.48223ZM56.9632 9.44832C56.9632 10.2493 56.6451 11.0174 56.0787 11.5837C55.5124 12.1501 54.7442 12.4683 53.9433 12.4683C53.1424 12.4683 52.3742 12.1501 51.8079 11.5837C51.2415 11.0174 50.9234 10.2493 50.9234 9.44832C50.9234 8.64738 51.2415 7.87925 51.8079 7.31291C52.3742 6.74656 53.1424 6.42839 53.9433 6.42839C54.7442 6.42839 55.5124 6.74656 56.0787 7.31291C56.6451 7.87925 56.9632 8.64738 56.9632 9.44832Z" fill="var(--fill-0, #0A1D08)"/>
</svg><svg x="53.231787000000004" y="1.3174979999999998" width="21.441861000000003" height="22.4519295" viewBox="0 0 21.4429 22.4497" overflow="visible">
<path id="Vector" d="M16.4647 7.38948V4.71618C16.8183 4.55146 17.1176 4.28952 17.3278 3.96098C17.538 3.63244 17.6504 3.25086 17.6518 2.86083V2.79898C17.6518 1.66183 16.7301 0.739145 15.5929 0.739145H15.5311C15.2606 0.739145 14.9928 0.792431 14.743 0.89596C14.4931 0.999489 14.2661 1.15123 14.0749 1.34252C13.8837 1.5338 13.7321 1.76089 13.6287 2.01079C13.5253 2.2607 13.4721 2.52853 13.4722 2.79898V2.85983C13.4736 3.24986 13.586 3.63144 13.7962 3.95998C14.0064 4.28853 14.3057 4.55046 14.6593 4.71518V7.38948C13.6435 7.54519 12.6869 7.96637 11.8862 8.61042L4.55458 2.89873C4.60712 2.70854 4.63438 2.51569 4.63638 2.32018C4.63677 1.86177 4.50125 1.41354 4.24694 1.03214C3.99263 0.650738 3.63095 0.353298 3.20762 0.177417C2.7843 0.00153662 2.31833 -0.0448883 1.86862 0.0440112C1.41892 0.132911 1.00566 0.353143 0.681097 0.676869C0.356535 1.0006 0.135239 1.41328 0.045179 1.86276C-0.0448808 2.31223 0.000341275 2.77832 0.175129 3.2021C0.349917 3.62588 0.646423 3.98832 1.02717 4.24361C1.40791 4.49891 1.85579 4.63559 2.3142 4.63638C2.71558 4.63433 3.1094 4.52702 3.45634 4.32516L10.6772 9.94408C10.028 10.924 9.68932 12.0768 9.70534 13.2522C9.72135 14.4275 10.0913 15.5707 10.767 16.5326L8.57052 18.7291C8.39305 18.6723 8.20819 18.6421 8.02189 18.6393C7.64516 18.6393 7.27688 18.751 6.96362 18.9602C6.65035 19.1695 6.40615 19.4669 6.26189 19.8149C6.11763 20.163 6.07978 20.5459 6.15314 20.9155C6.22649 21.285 6.40774 21.6245 6.67399 21.891C6.94024 22.1575 7.27954 22.3391 7.64898 22.4129C8.01843 22.4866 8.40144 22.4492 8.74961 22.3053C9.09778 22.1614 9.39547 21.9175 9.60506 21.6044C9.81465 21.2914 9.92673 20.9232 9.92712 20.5465C9.92465 20.3603 9.89473 20.1754 9.83834 19.9979L12.0109 17.8233C12.7193 18.3687 13.5432 18.7447 14.4194 18.9226C15.2956 19.1004 16.2009 19.0753 17.0659 18.8493C17.9309 18.6232 18.7327 18.2021 19.4099 17.6183C20.087 17.0346 20.6216 16.3035 20.9726 15.4812C21.3236 14.659 21.4817 13.7672 21.4349 12.8744C21.3881 11.9816 21.1375 11.1113 20.7024 10.3302C20.2673 9.5492 19.6592 8.87811 18.9246 8.36838C18.1901 7.85865 17.3487 7.52379 16.4647 7.38948ZM15.564 16.1834C15.1629 16.1938 14.7638 16.1237 14.3903 15.9774C14.0167 15.831 13.6763 15.6114 13.3889 15.3314C13.1016 15.0513 12.8733 14.7166 12.7173 14.347C12.5614 13.9773 12.4811 13.5802 12.4811 13.179C12.4811 12.7778 12.5614 12.3806 12.7173 12.011C12.8733 11.6413 13.1016 11.3066 13.3889 11.0266C13.6763 10.7466 14.0167 10.5269 14.3903 10.3806C14.7638 10.2342 15.1629 10.1642 15.564 10.1745C16.3395 10.2057 17.073 10.5357 17.6108 11.0953C18.1486 11.6549 18.4492 12.4009 18.4495 13.177C18.4499 13.9532 18.1501 14.6994 17.6129 15.2596C17.0756 15.8198 16.3425 16.1504 15.567 16.1824" fill="var(--fill-0, #0A1D08)"/>
</svg></svg>