<svg xmlns="http://www.w3.org/2000/svg" width="473" height="159" viewBox="0 0 118.13 39.692"><svg x="1.984584" y="2.1751216" width="114.645165" height="35.3814488" viewBox="0 0 114.648 35.3814" overflow="visible">
<path id="Vector" d="M12.1627 0H15.6536V0.657748H14.9959C14.8812 0.657748 14.6796 0.789423 14.3911 1.05277C14.1028 1.3155 13.9582 1.52151 13.9582 1.6576V11.6826C13.9582 11.8199 14.1025 12.0215 14.3911 12.2874C14.6796 12.552 14.8812 12.6843 14.9959 12.6843H15.6536V13.3392H10.5032V12.6787H11.16C11.2746 12.6787 11.4712 12.546 11.7497 12.2808C12.0269 12.0162 12.1655 11.8146 12.1655 11.676V1.97041L7.32406 13.5774L2.48829 1.76911V11.6788C2.48892 11.8174 2.62658 12.019 2.90127 12.2836C3.17533 12.5482 3.37568 12.6815 3.49098 12.6815H4.14495V13.3364H0V12.6787H0.656803C0.795409 12.6787 1.003 12.546 1.27958 12.2808C1.55554 12.0162 1.69288 11.8146 1.69162 11.676V1.65666C1.69162 1.52057 1.55428 1.31896 1.27958 1.05183C1.00426 0.787848 0.796669 0.656488 0.656803 0.657748H0V0H3.86805L7.87785 9.98624H7.98181L12.1627 0ZM20.4563 11.9888C21.0448 12.0238 21.6313 11.8928 22.1489 11.6108C22.5788 11.3173 22.9333 10.9264 23.1837 10.4701H23.7385C23.4911 11.3264 23.0197 12.1012 22.3729 12.7146C21.6628 13.3036 20.7555 13.6008 19.8345 13.5462C19.2868 13.5657 18.7422 13.457 18.244 13.2286C17.7458 13.0001 17.308 12.6584 16.9654 12.2307C16.2474 11.3429 15.868 10.229 15.8946 9.0875C15.8628 8.47645 15.9531 7.86519 16.1603 7.28946C16.3676 6.71373 16.6875 6.18511 17.1014 5.7345C17.4718 5.3366 17.9211 5.02044 18.4207 4.80628C18.9203 4.59212 19.4592 4.48467 20.0027 4.49083C20.5938 4.47623 21.1816 4.58234 21.7302 4.80269C22.2283 5.01533 22.6847 5.3149 23.0779 5.6882L21.8191 7.66616L21.2993 7.6983C21.4175 7.10953 21.382 6.50026 21.1963 5.92918C21.0861 5.66354 20.89 5.44255 20.6393 5.30154C20.3887 5.16054 20.098 5.10768 19.8137 5.15141C19.4431 5.12804 19.0728 5.20169 18.7394 5.36509C18.406 5.5285 18.1209 5.77602 17.9123 6.08322C17.467 6.8226 17.2503 7.67716 17.2895 8.53938C17.2652 9.43245 17.5661 10.3039 18.1363 10.9918C18.4228 11.322 18.7804 11.5833 19.1821 11.7559C19.5839 11.9286 20.0195 12.0082 20.4563 11.9888ZM29.025 13.3364H23.8056V12.6787H24.4728C24.6107 12.6787 24.818 12.546 25.0946 12.2808C25.3705 12.0162 25.5082 11.8146 25.5076 11.676V1.65666C25.5082 1.52057 25.3705 1.31896 25.0946 1.05183C24.8177 0.787218 24.6022 0.657748 24.4728 0.657748H23.8065V0H29.025V0.657748H28.3673C28.2293 0.657748 28.022 0.789423 27.7454 1.05277C27.4685 1.3155 27.3324 1.52151 27.3324 1.6576V7.11804L32.1002 1.79558C32.1918 1.68028 32.1002 1.46292 31.8582 1.14066C31.6163 0.818405 31.4188 0.657748 31.3044 0.657748H30.6647V0H35.4995V0.657748H34.8427C34.5176 0.769263 34.219 0.94693 33.9666 1.17941C33.5036 1.53664 33.2295 1.76911 33.135 1.85511L29.8916 5.34231L34.5563 11.5342C34.7831 11.7988 35.044 12.0304 35.3313 12.2241C35.5637 12.4377 35.8416 12.5927 36.1459 12.6758H37.1127C37.3414 12.6286 37.5493 12.5076 37.7024 12.3309C37.9556 12.0984 38.0826 11.9018 38.0832 11.7412V6.28924C38.0832 6.15064 37.9563 5.96572 37.7024 5.7345C37.5489 5.55805 37.3417 5.43687 37.1127 5.38956H36.591V4.73276H39.6662V11.7468C39.6662 11.9081 39.7988 12.1047 40.064 12.3366C40.2171 12.5038 40.4137 12.6238 40.6329 12.6815H41.7065C41.8218 12.6815 42.0014 12.5671 42.2584 12.3366C42.5129 12.1066 42.6396 11.91 42.6383 11.7468V6.28924C42.6383 6.15064 42.5114 5.96572 42.2575 5.7345C42.0048 5.50454 41.8212 5.38956 41.7065 5.38956H41.1518V4.73276H43.8829L44.2279 6.48675C44.697 5.99256 45.199 5.53064 45.7305 5.10416C46.2714 4.69749 46.9358 4.48927 47.6121 4.51446C47.9295 4.50886 48.2449 4.56731 48.5393 4.68633C48.8337 4.80535 49.101 4.98249 49.3254 5.20717C49.5612 5.44119 49.7459 5.7216 49.8678 6.03068C49.9896 6.33976 50.0459 6.67076 50.0333 7.00275V11.7468C50.0333 11.9081 50.1599 12.1047 50.4132 12.3366C50.6674 12.57 50.8498 12.6815 50.9651 12.6815H51.5189V13.3364H46.9931V12.6787H47.4713C47.7 12.6307 47.907 12.5096 48.061 12.3337C48.3142 12.1003 48.4409 11.9066 48.4409 11.744V7.11804C48.4579 6.73087 48.3344 6.35059 48.0931 6.04731C47.9638 5.90361 47.8033 5.79143 47.6239 5.71935C47.4445 5.64728 47.2511 5.61722 47.0583 5.63149C46.3746 5.65226 45.715 5.88878 45.1739 6.3072C44.5426 6.75515 44.2272 7.12938 44.2279 7.4299V11.7468C44.2279 11.9081 44.3545 12.1047 44.6078 12.3366C44.7618 12.5133 44.9688 12.6342 45.1975 12.6815H45.6813V13.3364H33.3183L28.6801 6.66915L27.3324 8.12073V11.6788C27.3318 11.8174 27.4695 12.019 27.7454 12.2836C28.0226 12.5482 28.2299 12.6809 28.3673 12.6815H29.025V13.3364ZM33.6538 28.3739L33.6132 28.3323C34.0529 28.7009 34.4971 29.0694 34.9457 29.438C35.3943 29.8059 35.8718 30.1638 36.3784 30.5116H37.1722V31.2014H35.7206C35.13 31.2109 34.544 31.1069 33.9931 30.8915C33.4053 30.6284 32.8675 30.2655 32.4035 29.8188C31.8805 30.3452 31.25 30.7524 30.555 31.0124C29.7506 31.2915 28.9029 31.4252 28.0516 31.4075C26.9697 31.4129 25.9223 31.0265 25.1031 30.3197C24.6797 29.9774 24.3408 29.5421 24.1129 29.0476C23.8849 28.5532 23.7739 28.0128 23.7885 27.4685C23.7792 26.6585 23.9825 25.8601 24.3783 25.1532C24.7624 24.4749 25.2996 23.8957 25.947 23.4616C25.637 23.0679 25.3755 22.6382 25.1683 22.182C24.9637 21.7023 24.8632 21.1847 24.8735 20.6633C24.8488 20.2571 24.913 19.8503 25.0617 19.4715C25.2104 19.0927 25.44 18.7508 25.7344 18.4699C26.3927 17.9213 27.2348 17.643 28.0904 17.6911C28.5831 17.675 29.075 17.7448 29.5438 17.8972C29.851 18.0238 30.1789 18.0956 30.5106 18.107C30.6391 18.1095 30.7661 18.0975 30.8915 18.0711C30.9962 18.0371 31.0832 17.963 31.1334 17.865H31.7231V21.0082H31.1334C31.0415 20.3596 30.7291 19.7622 30.2488 19.3166C29.9807 18.9967 29.6446 18.7406 29.265 18.567C28.8854 18.3933 28.4718 18.3066 28.0545 18.313C27.4486 18.2806 26.8501 18.4575 26.3591 18.8139C26.1533 18.9822 25.9899 19.1964 25.8819 19.4393C25.7739 19.6822 25.7244 19.947 25.7372 20.2125C25.7334 20.7323 25.9177 21.236 26.257 21.6301C26.6284 22.0648 27.1037 22.3965 27.6386 22.5978C28.4904 23.5214 29.4115 24.4482 30.4019 25.3781C31.3377 26.2572 32.2821 27.127 33.2352 27.9874C33.4809 27.5933 33.6623 27.1623 33.7719 26.7116C33.8797 26.2268 33.9326 25.7325 33.9288 25.2373C33.94 24.971 33.8948 24.7054 33.7961 24.4578C33.6974 24.2102 33.5475 23.9864 33.3561 23.8008C32.9341 23.4282 32.3826 23.2365 31.8204 23.2669V22.5978H36.5617V23.2196H36.0457C35.9298 23.2184 35.7046 23.4149 35.37 23.8093C35.1218 24.0418 34.9475 24.3422 34.8691 24.6731V24.709C34.8461 25.3725 34.73 26.0294 34.5242 26.6605C34.3255 27.2717 34.0321 27.848 33.6548 28.3682L33.6538 28.3739ZM29.128 30.3783C29.6731 30.3859 30.2158 30.3045 30.7346 30.1373C31.195 29.9827 31.631 29.7631 32.0293 29.4852L31.9263 29.4172C30.9412 28.5387 29.9739 27.6404 29.025 26.7229C28.0638 25.7926 27.141 24.8234 26.2589 23.8178C25.9289 24.1626 25.6607 24.5615 25.466 24.9973C25.2592 25.5245 25.1649 26.0891 25.1891 26.6549C25.2025 27.1493 25.3221 27.6351 25.5398 28.0793C25.7575 28.5234 26.0682 28.9156 26.4507 29.2291C27.1633 29.9395 28.1221 30.348 29.128 30.3698V30.3783ZM38.6635 2.62721C38.3741 2.6296 38.0956 2.5175 37.8885 2.31535C37.7822 2.21942 37.6976 2.10178 37.6405 1.97039C37.5835 1.83899 37.5552 1.69688 37.5578 1.55365V1.52151C37.5495 1.36989 37.5749 1.21832 37.6321 1.07765C37.6893 0.936986 37.7768 0.810699 37.8885 0.707835C38.1165 0.51897 38.4033 0.415619 38.6994 0.415619C38.9955 0.415619 39.2822 0.51897 39.5102 0.707835C39.6219 0.810699 39.7095 0.936986 39.7667 1.07765C39.8239 1.21832 39.8492 1.36989 39.841 1.52151H39.8051C39.8287 1.52151 39.8401 1.52151 39.8401 1.55365C39.8425 1.69672 39.8142 1.83865 39.7571 1.96987C39.7001 2.1011 39.6156 2.21858 39.5093 2.3144C39.3137 2.51286 39.0462 2.62627 38.7665 2.62721H38.6635ZM47.4713 30.3018C48.4191 30.3566 49.3613 30.1156 50.1656 29.6119C50.8631 29.0876 51.4202 28.3991 51.7872 27.6075H52.4837C52.1019 28.7301 51.3906 29.7115 50.4425 30.4237C49.4675 31.1206 48.2911 31.4787 47.0932 31.4434C46.2201 31.4747 45.3514 31.3049 44.5544 30.947C43.7573 30.5892 43.0533 30.0528 42.4966 29.3794C41.342 28.0024 40.7279 26.2523 40.769 24.4557C40.7231 22.7077 41.2845 20.9978 42.3576 19.6171C42.879 18.9606 43.5483 18.4368 44.311 18.0885C45.0736 17.7403 45.9079 17.5776 46.7455 17.6137C47.3692 17.6004 47.991 17.7006 48.5788 17.9095C49.074 18.1041 49.6013 18.2041 50.1334 18.2043C50.2988 18.2128 50.4642 18.1826 50.6173 18.1155C50.7464 18.0487 50.8614 17.9633 50.9622 17.8594H51.4451V22.5619H50.8554C50.7559 21.6131 50.3844 20.7133 49.7857 19.9706C49.466 19.4776 49.0244 19.0755 48.5037 18.8033C47.983 18.5311 47.4008 18.398 46.8135 18.4169C46.3125 18.3901 45.8114 18.4669 45.3415 18.6425C44.8716 18.8181 44.4429 19.0888 44.0823 19.4376C43.321 20.3542 42.9044 21.5083 42.9048 22.6999V22.6318C42.8809 22.8851 42.8632 23.1387 42.8519 23.3926C42.8519 23.6458 42.833 23.9086 42.833 24.1864C42.833 24.5077 42.833 24.8375 42.8689 25.1711C42.9048 25.5038 42.9162 25.8109 42.9369 26.0878C43.0291 27.2087 43.505 28.2635 44.2846 29.0742C44.6998 29.4912 45.1984 29.816 45.7476 30.0273C46.2969 30.2387 46.8845 30.3319 47.4722 30.3008M58.3817 10.918C58.4016 11.2777 58.3421 11.6374 58.2076 11.9715C58.073 12.3056 57.8666 12.6061 57.603 12.8516C57.052 13.3256 56.3419 13.5731 55.6156 13.5443C55.1415 13.5581 54.67 13.4698 54.233 13.2854C53.8887 13.1168 53.5107 13.0279 53.1273 13.0255C52.9954 13.0123 52.8628 13.0422 52.7493 13.1105L52.4724 13.3355H52.0717V10.2953H52.5905C52.6868 10.8876 52.9711 11.4333 53.4014 11.8517C53.6749 12.172 54.0179 12.4256 54.4042 12.5933C54.7905 12.761 55.21 12.8383 55.6307 12.8195C56.0626 12.8421 56.4926 12.7458 56.8744 12.5426C57.0216 12.4487 57.1409 12.317 57.2197 12.1612C57.2985 12.0054 57.334 11.8313 57.3223 11.6571C57.3385 11.4497 57.2973 11.2419 57.2033 11.0564C57.1093 10.8709 56.9661 10.7148 56.7893 10.6052C56.4393 10.3909 56.0756 10.1996 55.7007 10.0325C55.3765 9.8974 55.0854 9.77077 54.8161 9.65547C54.512 9.52535 54.2064 9.39871 53.8994 9.27557C53.4113 9.05015 52.9672 8.73976 52.5877 8.35888C52.4108 8.16599 52.2738 7.94002 52.1846 7.69398C52.0954 7.44794 52.0558 7.18668 52.0679 6.92525C52.0461 6.59748 52.097 6.26895 52.2169 5.96312C52.3368 5.6573 52.5228 5.38174 52.7616 5.15614C53.2048 4.84154 53.7192 4.64203 54.2586 4.57555C54.7981 4.50907 55.3455 4.57771 55.8519 4.77529C56.1477 4.92271 56.4737 5.00021 56.8035 5.0021C56.9043 5.0046 57.0045 4.98693 57.0984 4.95012C57.1839 4.91211 57.2522 4.84376 57.2902 4.75828H57.7391V7.41195H57.2193C57.1357 6.8877 56.8883 6.40338 56.5124 6.02841C56.2812 5.74615 55.9878 5.52127 55.6551 5.37141C55.3224 5.22155 54.9596 5.15078 54.595 5.16464C54.1956 5.13346 53.798 5.24423 53.4723 5.47745C53.3553 5.57335 53.2617 5.69474 53.1988 5.83232C53.1359 5.96991 53.1053 6.12006 53.1094 6.27129C53.0988 6.43009 53.1281 6.58901 53.1946 6.7336C53.2611 6.87818 53.3627 7.00384 53.4902 7.09914C53.8172 7.32595 54.1621 7.52252 54.525 7.68885C54.8482 7.82493 55.1538 7.95094 55.4417 8.06686L56.3915 8.44677C56.8867 8.65468 57.3422 8.94764 57.7382 9.31053C57.957 9.51338 58.1291 9.76134 58.2427 10.0373C58.3563 10.3132 58.4085 10.6105 58.3959 10.9086L58.3817 10.918ZM60.6432 23.5636C61.0828 23.9926 61.4258 24.5103 61.6494 25.0823C61.8729 25.6543 61.972 26.2674 61.9398 26.8807C61.9709 27.4966 61.8715 28.1121 61.648 28.6868C61.4246 29.2616 61.0821 29.7826 60.6432 30.2158C59.8494 31.0039 58.7755 31.4451 57.6569 31.4424C57.0966 31.4469 56.541 31.3408 56.0218 31.1304C55.5025 30.9199 55.0299 30.6091 54.6309 30.2158C54.1923 29.7825 53.8502 29.2614 53.6271 28.6866C53.404 28.1119 53.3048 27.4965 53.3362 26.8807C53.303 26.2951 53.3905 25.7088 53.5931 25.1583C53.7958 24.6078 54.1093 24.1048 54.5143 23.6805C54.9193 23.2561 55.4071 22.9194 55.9475 22.6912C56.4879 22.463 57.0694 22.3483 57.6559 22.354C58.7767 22.3459 59.8554 22.7806 60.6574 23.5636H60.6432ZM60.2274 28.3049V28.3729C60.2501 28.119 60.2668 27.8654 60.2775 27.6122C60.2882 27.3589 60.2939 27.1053 60.2945 26.8514C60.2945 26.5982 60.2945 26.3534 60.2775 26.1115C60.2595 25.8695 60.251 25.6427 60.2274 25.4358C60.1735 24.8053 59.9123 24.2104 59.4846 23.7441C59.2406 23.5221 58.9538 23.3523 58.6417 23.2452C58.3297 23.1381 57.999 23.096 57.6701 23.1213C57.3486 23.0989 57.0258 23.1425 56.7217 23.2494C56.4177 23.3564 56.1387 23.5244 55.902 23.7432C55.4789 24.1992 55.2176 24.7816 55.1582 25.4008V25.3564C55.1128 25.5958 55.0845 25.8377 55.0732 26.0822C55.0732 26.3354 55.0552 26.5887 55.0552 26.8391C55.0552 27.0905 55.0552 27.34 55.0732 27.5829C55.0832 27.8097 55.1116 28.0346 55.1582 28.2576C55.2272 28.8738 55.4871 29.4541 55.902 29.9152C56.1335 30.1438 56.4109 30.3205 56.7159 30.4338C57.0209 30.547 57.3465 30.5941 57.6711 30.572C58.0041 30.601 58.3395 30.5589 58.655 30.4486C58.9706 30.3383 59.2591 30.1623 59.5016 29.9323C59.9066 29.4783 60.1603 28.9095 60.2274 28.3049ZM63.0606 13.5623C62.5154 13.573 61.975 13.4587 61.4808 13.2282C60.9866 12.9977 60.5517 12.6572 60.2094 12.2326C59.4625 11.3497 59.063 10.2248 59.0858 9.0686C59.0501 7.88319 59.4571 6.72695 60.2274 5.82523C60.569 5.40789 61.0025 5.07523 61.494 4.85325C61.9855 4.63127 62.5217 4.52599 63.0606 4.54564C63.4789 4.52283 63.8972 4.58998 64.2873 4.74258C64.6775 4.89517 65.0303 5.12965 65.3221 5.4302C65.8636 6.00951 66.1774 6.7646 66.2067 7.55654L66.2416 8.17838L60.5043 8.63861C60.5168 9.46657 60.8078 10.2662 61.3303 10.9086C61.5928 11.2617 61.9376 11.5453 62.3347 11.7349C62.7318 11.9244 63.1691 12.0142 63.6088 11.9963C64.2027 12.03 64.7945 11.8995 65.3193 11.6193C65.7468 11.3409 66.0977 10.9597 66.3399 10.5107H66.8587C66.6391 11.363 66.1831 12.1358 65.5433 12.7401C64.8472 13.3125 63.9601 13.5999 63.0606 13.5443V13.5623ZM63.0257 5.20056C62.6487 5.16897 62.2701 5.23673 61.9276 5.39707C61.585 5.55742 61.2904 5.80475 61.0732 6.11441C60.6851 6.68199 60.4635 7.34684 60.4334 8.03378L64.7522 7.66522C64.8264 7.08705 64.761 6.49953 64.5614 5.95186C64.3723 5.44154 63.8604 5.18512 63.0257 5.1826V5.20056ZM73.458 30.5588C73.5966 30.5588 73.7862 30.4378 74.0269 30.1959C74.2688 29.954 74.3898 29.7644 74.3898 29.627V24.9094C74.4056 24.5411 74.2897 24.1792 74.0628 23.8887C73.9289 23.7471 73.7645 23.6377 73.5821 23.5689C73.3997 23.5002 73.2041 23.4738 73.01 23.4918C72.3985 23.5123 71.8101 23.7302 71.3326 24.1127C70.7681 24.5291 70.4858 24.8753 70.4858 25.1513V29.6412C70.4858 29.7798 70.6068 29.9697 70.8487 30.211C71.0913 30.4523 71.2702 30.573 71.3855 30.573H71.9053V31.2307H67.4825V30.573H67.9644C68.103 30.573 68.293 30.4523 68.5343 30.211C68.7762 29.9697 68.8972 29.7798 68.8972 29.6412V24.9235C68.9161 24.5417 68.7932 24.1656 68.5523 23.8679C68.4195 23.7288 68.2574 23.621 68.0777 23.5523C67.8981 23.4836 67.7054 23.4559 67.5137 23.471C66.8859 23.4917 66.2834 23.7231 65.8031 24.1278C65.2393 24.5644 64.9573 24.933 64.9573 25.2335V29.6563C64.9573 29.7949 65.0783 29.9845 65.3202 30.2252C65.5628 30.4671 65.7534 30.5881 65.892 30.5881H66.3758V31.2459H61.953V30.5881H62.4728C62.5862 30.5881 62.7667 30.4671 63.0058 30.2252C63.2449 29.9833 63.3687 29.7952 63.3687 29.6563V24.1514C63.3687 24.0147 63.2477 23.8308 63.0058 23.5995C62.7645 23.3702 62.5865 23.2555 62.4719 23.2555H61.953V22.5978H64.6067L64.9517 24.2573C65.3908 23.7911 65.8522 23.3464 66.3342 22.9248C66.8398 22.5383 67.4683 22.3483 68.1034 22.3908C68.6463 22.3806 69.1783 22.5438 69.622 22.8567C69.843 23.016 70.028 23.2198 70.1652 23.455C70.3025 23.6902 70.3888 23.9516 70.4187 24.2223C70.8821 23.7735 71.3662 23.3465 71.8693 22.9427C72.369 22.5774 72.9786 22.394 73.5969 22.423C74.2227 22.4078 74.8298 22.6377 75.2885 23.0637C75.5264 23.2999 75.7112 23.5841 75.8308 23.8972C75.9504 24.2104 76.002 24.5454 75.9822 24.8801V29.5977C75.9822 29.7357 76.1031 29.9253 76.3451 30.1666C76.5864 30.4086 76.7643 30.5295 76.879 30.5295H77.3988V31.1863H72.976V30.5295L73.458 30.5588ZM67.6885 6.38091C67.5446 6.15542 67.3634 5.95602 67.1527 5.79121C66.8591 5.5373 66.6625 5.41035 66.5629 5.41035H66.1821V4.73276H70.8468V5.38956H70.2959C70.1799 5.38956 70.0303 5.50454 69.847 5.7345C69.6929 5.89516 69.5956 6.10307 69.5701 6.32421L71.634 10.5731L73.5355 6.35728C73.537 6.24131 73.5149 6.12623 73.4704 6.01913C73.4258 5.91203 73.3599 5.81517 73.2765 5.7345C73.0799 5.50454 72.9237 5.38956 72.8078 5.38956H72.2389V4.73276H75.7298V5.38956H75.349C75.2337 5.38956 75.0548 5.51053 74.8122 5.75246C74.6232 5.9254 74.4654 6.13047 74.3463 6.35728L71.3978 12.6106L68.8622 17.4851L68.1109 17.1014L70.7344 12.3668L67.6885 6.38091ZM83.3431 22.3785C83.8248 22.36 84.3037 22.4605 84.7373 22.6714C85.1709 22.8822 85.5457 23.1968 85.8285 23.5873C86.4598 24.5228 86.7698 25.638 86.7131 26.7654C86.7606 27.9523 86.4074 29.1207 85.7104 30.0825C85.4234 30.4931 85.0405 30.8275 84.5951 31.0567C84.1496 31.286 83.655 31.4031 83.1541 31.398C82.5205 31.4303 81.8909 31.2798 81.3405 30.9642C80.8542 30.634 80.4563 30.1894 80.1819 29.6695V33.8154C80.1819 33.9767 80.3086 34.1733 80.5618 34.4051C80.816 34.6386 81.0013 34.7501 81.1166 34.7501H81.6741V35.3814H77.1209V34.7236H77.6757C77.8987 34.6764 78.1 34.5554 78.2446 34.3787C78.4372 34.2364 78.5673 34.0251 78.6075 33.789V24.1514C78.6075 24.0147 78.4865 23.8308 78.2446 23.5995C78.0996 23.4235 77.8989 23.3021 77.6757 23.2555H77.1209V22.5619H79.9192L80.1961 24.3612C80.5109 23.7545 80.9673 23.2326 81.5267 22.8397C82.0715 22.5036 82.7033 22.3353 83.3431 22.3559V22.3785ZM85.0706 28.2161L85.1387 27.5262C85.1623 27.297 85.174 27.0667 85.1736 26.8363C85.1736 26.6347 85.162 26.4331 85.1387 26.2315C85.1147 26.0362 85.092 25.8456 85.0706 25.6597C85.0152 25.0549 84.7731 24.4822 84.3779 24.021C84.1889 23.8227 83.9594 23.6674 83.705 23.5656C83.4506 23.4639 83.1773 23.4181 82.9036 23.4313C82.5847 23.4176 82.2664 23.4702 81.9689 23.5859C81.6713 23.7015 81.4011 23.8777 81.1752 24.1032C80.7258 24.5777 80.3946 25.1514 80.2084 25.7779V28.0252C80.205 28.3473 80.2676 28.6668 80.3923 28.9638C80.5169 29.2609 80.701 29.5294 80.9332 29.7527C81.1628 29.9884 81.4384 30.1743 81.7429 30.299C82.0474 30.4237 82.3743 30.4845 82.7033 30.4775H82.7383C83.0446 30.5012 83.3524 30.456 83.6391 30.3453C83.9257 30.2346 84.184 30.0612 84.3949 29.8377C84.7809 29.3576 85.016 28.7739 85.0706 28.1603V28.2161ZM104.592 29.6346C104.592 29.7732 104.719 29.9628 104.973 30.2035C105.226 30.4454 105.41 30.5664 105.524 30.5664H106.043V31.2241H101.517V30.5664H102.019C102.136 30.5664 102.314 30.4454 102.573 30.2035C102.833 29.9615 102.954 29.7735 102.954 29.6346V24.9491C102.965 24.571 102.85 24.1996 102.626 23.8953C102.502 23.7472 102.346 23.6306 102.168 23.5553C101.991 23.4801 101.798 23.4482 101.606 23.4625C100.92 23.4854 100.26 23.7271 99.7216 24.1524C99.0865 24.6155 98.7702 24.984 98.7727 25.2581V29.6128C98.7727 29.7741 98.8994 29.9707 99.1526 30.2025C99.3067 30.3793 99.5137 30.5002 99.7424 30.5475H100.25V31.2052H92.9135L92.6716 29.4096C92.308 29.8878 91.9051 30.3311 91.4629 30.7393C91.0139 31.1608 90.4181 31.3904 89.8024 31.3791C89.5123 31.3813 89.2248 31.324 88.9576 31.2109C88.6904 31.0978 88.4492 30.9312 88.2488 30.7214C88.0297 30.4991 87.8584 30.2344 87.7454 29.9435C87.6325 29.6526 87.5802 29.3416 87.592 29.0297C87.5592 28.6633 87.631 28.2951 87.7989 27.9678C87.9668 27.6405 88.2241 27.3674 88.5408 27.1803C89.1184 26.8458 89.7408 26.5956 90.3893 26.4375L92.6366 25.9867L92.6716 24.9509C92.698 24.4294 92.5254 23.9174 92.1887 23.5183C91.9643 23.3184 91.7008 23.1675 91.4149 23.0751C91.1291 22.9827 90.8271 22.9508 90.5282 22.9815C90.2384 22.9472 89.9447 22.9934 89.6795 23.1151C89.4142 23.2368 89.1877 23.4293 89.0247 23.6714C88.8956 23.9568 88.8362 24.2688 88.8515 24.5816C88.8668 24.8945 88.9563 25.1993 89.1125 25.4707H88.4907L87.3113 23.7422C87.7835 23.2776 88.3462 22.9151 88.9645 22.6772C89.5828 22.4394 90.2434 22.3313 90.9053 22.3596C91.752 22.3313 92.5856 22.5676 93.2906 23.0353C93.6053 23.2508 93.8595 23.5433 94.0289 23.8849C94.1983 24.2266 94.2773 24.606 94.2583 24.9869V29.6157C94.2583 29.7543 94.3849 29.9382 94.6382 30.1676C94.8915 30.3982 95.0754 30.5141 95.1901 30.5153H96.2278C96.4574 30.4681 96.6644 30.3452 96.8175 30.1676C97.0707 29.9376 97.1974 29.7536 97.1974 29.6157V24.1524C97.1974 24.0157 97.0707 23.8317 96.8175 23.6005C96.6634 23.4249 96.4564 23.3042 96.2278 23.2565H95.7089V22.5628H98.4391L98.7841 24.3622C99.2465 23.8695 99.7379 23.4083 100.258 22.9786C100.803 22.5668 101.475 22.3582 102.157 22.3889C102.474 22.3834 102.788 22.4416 103.082 22.5601C103.376 22.6786 103.643 22.855 103.867 23.0788C104.104 23.313 104.29 23.594 104.412 23.9037C104.534 24.2135 104.591 24.5454 104.578 24.8782L104.592 29.6346ZM92.6716 26.5717L90.6076 27.0905C90.1646 27.1628 89.7609 27.3882 89.4669 27.7275C89.2533 28.0372 89.144 28.407 89.1551 28.7831V28.8152C89.1517 28.9912 89.1835 29.1661 89.2485 29.3297C89.3136 29.4933 89.4107 29.6422 89.534 29.7678C89.6532 29.8961 89.7982 29.9976 89.9595 30.0657C90.1207 30.1338 90.2946 30.1669 90.4696 30.1628H90.5197C90.9828 30.1439 91.4232 29.9606 91.7634 29.6469C92.114 29.3662 92.4136 29.0269 92.6479 28.6442L92.6716 26.5717ZM114.648 22.5969V23.2537H114.232C114.14 23.2537 113.972 23.3746 113.73 23.6166C113.547 23.7912 113.379 23.9816 113.229 24.1855L110.328 30.4747L107.736 35.3133L107.011 34.9334L109.602 30.1988L106.563 24.2214C106.417 23.9969 106.236 23.7977 106.026 23.6317C105.731 23.3784 105.548 23.2508 105.457 23.2508H105.041V22.5969H109.705V23.2537H109.186C109.071 23.2537 108.916 23.3689 108.72 23.5995C108.559 23.7576 108.455 23.9653 108.425 24.1892L110.489 28.441L112.4 24.177C112.4 24.0661 112.377 23.9565 112.332 23.855C112.288 23.7535 112.223 23.6624 112.141 23.5873C111.946 23.3573 111.791 23.2423 111.675 23.2423H111.123V22.5969H114.648Z" fill="var(--fill-0, #0A1D08)"/>
</svg></svg>