<svg xmlns="http://www.w3.org/2000/svg" width="588" height="84" viewBox="0 0 147 21"><svg x="41.160000000000004" y="4.5255" width="79.85040000000001" height="12.347999999999999" viewBox="0 0 79.8449 12.348" overflow="visible">
<path id="Vector" fill-rule="evenodd" clip-rule="evenodd" d="M10.215 6.174C10.215 2.884 7.66004 0.268 4.28304 0.268L0.287042 0.279C0.248788 0.27939 0.210991 0.287345 0.175825 0.302407C0.140658 0.317469 0.108817 0.339341 0.0821395 0.366762C0.0554624 0.394182 0.0344732 0.42661 0.0203833 0.462178C0.00629346 0.497745 -0.000618205 0.535749 4.3379e-05 0.574V11.801C-0.000485124 11.8392 0.00652741 11.8771 0.0206771 11.9125C0.0348267 11.948 0.0558341 11.9803 0.0824981 12.0076C0.109162 12.0349 0.140957 12.0567 0.176057 12.0717C0.211158 12.0867 0.248873 12.0946 0.287042 12.095H4.28304C7.66004 12.095 10.215 9.464 10.215 6.175M5.62504 9.522C5.20145 9.70735 4.74534 9.80693 4.28304 9.815H2.47104V2.546H4.28304C4.74667 2.54471 5.20566 2.63826 5.6318 2.82089C6.05794 3.00353 6.44223 3.27138 6.76104 3.608C7.08528 3.95013 7.33875 4.35293 7.50693 4.79327C7.6751 5.23362 7.75466 5.70283 7.74104 6.174C7.75536 7.12266 7.3987 8.03942 6.74705 8.729C6.42902 9.06451 6.04768 9.33369 5.62504 9.521M25.193 6.174C25.193 2.801 22.476 0 18.921 0C15.39 0 12.671 2.788 12.671 6.174C12.671 9.56 15.366 12.348 18.921 12.348C22.476 12.348 25.193 9.547 25.193 6.174ZM22.43 7.677C21.84 9.128 20.454 10.072 18.92 10.067C16.83 10.057 15.142 8.317 15.142 6.174C15.145 4.601 16.071 3.184 17.488 2.586C18.1818 2.29336 18.948 2.21814 19.6854 2.37026C20.4228 2.52239 21.0967 2.89471 21.618 3.438C22.1489 3.99032 22.5082 4.68476 22.6523 5.43715C22.7964 6.18955 22.7192 6.9676 22.43 7.677ZM40.088 6.174C40.088 2.788 37.371 0 33.828 0C30.273 0 27.555 2.788 27.555 6.174C27.555 9.56 30.295 12.348 33.827 12.348C37.359 12.348 40.088 9.561 40.088 6.174ZM37.609 6.177C37.611 8.321 35.919 10.061 33.828 10.067C33.3269 10.0661 32.831 9.96477 32.3696 9.76896C31.9083 9.57316 31.4909 9.28687 31.142 8.927C30.4262 8.18961 30.0268 7.2017 30.029 6.174C30.032 4.029 31.729 2.294 33.821 2.294C35.911 2.294 37.606 4.031 37.609 6.177ZM43.637 0.279C43.5988 0.27939 43.561 0.287345 43.5258 0.302407C43.4907 0.317469 43.4588 0.339341 43.4321 0.366762C43.4055 0.394182 43.3845 0.42661 43.3704 0.462178C43.3563 0.497745 43.3494 0.535749 43.35 0.574L43.364 11.792C43.3634 11.8302 43.3703 11.8681 43.3843 11.9036C43.3983 11.9391 43.4192 11.9715 43.4458 11.9989C43.4724 12.0263 43.5041 12.0482 43.5391 12.0633C43.5742 12.0784 43.6119 12.0865 43.65 12.087H45.526C45.5642 12.0865 45.6019 12.0784 45.637 12.0633C45.672 12.0482 45.7037 12.0263 45.7303 11.9989C45.7569 11.9715 45.7778 11.9391 45.7918 11.9036C45.8058 11.8681 45.8127 11.8302 45.812 11.792V7.97H47.955L50.093 11.95C50.1172 11.9982 50.1544 12.0387 50.2003 12.067C50.2462 12.0952 50.2991 12.1101 50.353 12.11H52.301C52.3553 12.115 52.4099 12.104 52.458 12.0784C52.5062 12.0529 52.5458 12.0138 52.572 11.966C52.5998 11.9177 52.6135 11.8627 52.6117 11.8071C52.61 11.7515 52.5928 11.6974 52.562 11.651L50.342 7.629C51.619 6.974 52.418 5.629 52.4 4.166C52.4 2.002 50.74 0.279 48.447 0.279H43.637ZM48.969 5.579C48.7777 5.651 48.58 5.68267 48.376 5.674H45.821V2.546H48.376V2.549C48.5843 2.54258 48.7917 2.57964 48.9849 2.65781C49.1781 2.73597 49.3528 2.85354 49.498 3.003C49.6459 3.15493 49.7615 3.33524 49.8378 3.53306C49.9141 3.73088 49.9496 3.94211 49.942 4.154C49.941 4.35954 49.8991 4.56282 49.8187 4.75201C49.7384 4.9412 49.6212 5.11252 49.474 5.256C49.3292 5.39655 49.1574 5.50641 48.969 5.579ZM66.586 6.236C66.586 2.94 64.031 0.321 60.654 0.321L56.669 0.334C56.6308 0.33452 56.593 0.342604 56.5579 0.357787C56.5228 0.37297 56.491 0.394951 56.4644 0.422465C56.4378 0.449979 56.417 0.482482 56.403 0.5181C56.389 0.553719 56.3822 0.591749 56.383 0.63V11.857C56.3823 11.9143 56.3985 11.9704 56.4297 12.0185C56.4608 12.0665 56.5055 12.1043 56.558 12.127C56.5932 12.142 56.6309 12.1501 56.669 12.151H60.654C64.031 12.151 66.586 9.531 66.586 6.236ZM61.996 9.579C61.572 9.765 61.116 9.864 60.654 9.87H58.843V2.602H60.655C61.1194 2.6003 61.5792 2.69374 62.0061 2.87656C62.433 3.05938 62.8179 3.32771 63.137 3.665C63.4618 4.00744 63.7154 4.41093 63.8831 4.85208C64.0508 5.29324 64.1293 5.76329 64.114 6.235C64.1278 7.18346 63.7708 8.09983 63.119 8.789C62.801 9.125 62.419 9.393 61.996 9.579ZM70.98 11.881L71.898 9.293H76.338L77.255 11.88C77.2733 11.9411 77.3115 11.9942 77.3635 12.031C77.4155 12.0678 77.4784 12.0861 77.542 12.083H79.531C79.5816 12.0881 79.6326 12.0794 79.6786 12.0577C79.7246 12.036 79.7638 12.0023 79.792 11.96C79.8214 11.9174 79.8391 11.8679 79.8437 11.8164C79.8483 11.7649 79.8394 11.7131 79.818 11.666L75.518 0.45C75.4982 0.390627 75.4593 0.339455 75.4074 0.30439C75.3555 0.269326 75.2935 0.252319 75.231 0.256H73.004C72.9416 0.252489 72.8797 0.269563 72.8278 0.304604C72.776 0.339645 72.7371 0.39072 72.717 0.45L68.417 11.666C68.3843 11.7365 68.3805 11.8171 68.4065 11.8904C68.4325 11.9637 68.4862 12.0239 68.556 12.058C68.6027 12.0793 68.6517 12.088 68.703 12.084H70.694C70.7573 12.086 70.8196 12.0673 70.8712 12.0306C70.9229 11.994 70.9611 11.9414 70.98 11.881ZM72.72 7.097L74.122 3.211L75.521 7.097H72.72Z" fill="var(--fill-0, #0A1D08)"/>
</svg><svg x="2.352" y="2.3834999999999997" width="142.296" height="16.4955" viewBox="0 0 142.294 16.4951" overflow="visible">
<path id="Vector" d="M124.968 2.14205C122.497 2.14205 120.931 3.74805 120.931 5.60505L120.93 5.62305C120.93 8.07805 122.901 8.67905 124.553 9.18205C125.744 9.54405 126.769 9.85705 126.769 10.7771C126.769 11.6241 125.955 12.3 124.72 12.3C123.775 12.2894 122.871 11.9118 122.2 11.247C122.173 11.2185 122.141 11.1957 122.105 11.1801C122.069 11.1645 122.031 11.1564 121.992 11.1564C121.953 11.1564 121.914 11.1645 121.878 11.1801C121.842 11.1957 121.81 11.2185 121.784 11.247L120.718 12.3411C120.688 12.3689 120.665 12.4024 120.649 12.4396C120.633 12.4767 120.625 12.5166 120.625 12.557C120.625 12.5975 120.633 12.6374 120.649 12.6745C120.665 12.7117 120.688 12.7452 120.718 12.773C121.262 13.3239 121.911 13.7597 122.627 14.0546C123.343 14.3496 124.111 14.4976 124.886 14.4901C127.675 14.4901 129.252 12.8701 129.255 10.7301C129.255 8.27505 127.282 7.67405 125.629 7.17005C124.438 6.80805 123.412 6.49605 123.412 5.57605C123.412 4.89705 124.143 4.30905 125.132 4.30905C125.843 4.31971 126.525 4.59533 127.045 5.08205C127.071 5.10938 127.102 5.13109 127.137 5.14587C127.172 5.16065 127.21 5.1682 127.248 5.16805C127.286 5.1682 127.323 5.16065 127.358 5.14587C127.393 5.13109 127.424 5.10938 127.451 5.08205L128.554 3.95905C128.583 3.93106 128.606 3.89751 128.622 3.8604C128.637 3.82329 128.645 3.78338 128.645 3.74305C128.645 3.70272 128.637 3.66281 128.622 3.6257C128.606 3.58859 128.583 3.55503 128.554 3.52705C127.588 2.61069 126.299 2.11292 124.968 2.14205ZM134.884 2.59005C134.897 2.62514 134.904 2.66245 134.904 2.70005V7.14005H139.849V2.70005C139.848 2.62382 139.877 2.55033 139.93 2.4955C139.983 2.44066 140.055 2.40889 140.132 2.40705H142.008C142.065 2.40775 142.121 2.42552 142.168 2.45811C142.216 2.49069 142.252 2.53662 142.274 2.59005C142.287 2.62514 142.294 2.66245 142.294 2.70005V13.916C142.294 13.9542 142.287 13.9921 142.273 14.0276C142.259 14.0631 142.238 14.0955 142.212 14.1229C142.185 14.1503 142.154 14.1722 142.119 14.1874C142.084 14.2025 142.046 14.2105 142.008 14.211H140.132C140.093 14.2105 140.056 14.2025 140.021 14.1874C139.986 14.1722 139.954 14.1503 139.927 14.1229C139.901 14.0955 139.88 14.0631 139.866 14.0276C139.852 13.9921 139.845 13.9542 139.846 13.916V9.40605H134.904V13.916C134.904 13.9541 134.897 13.992 134.883 14.0273C134.869 14.0627 134.848 14.095 134.822 14.1223C134.795 14.1496 134.763 14.1714 134.728 14.1865C134.693 14.2015 134.656 14.2095 134.618 14.21H132.742C132.703 14.2095 132.666 14.2015 132.631 14.1864C132.596 14.1712 132.564 14.1493 132.537 14.1219C132.511 14.0945 132.49 14.0621 132.476 14.0266C132.462 13.9911 132.455 13.9532 132.456 13.915V2.70105C132.455 2.66294 132.461 2.62501 132.475 2.58959C132.489 2.55416 132.511 2.52199 132.538 2.49505C132.592 2.44069 132.665 2.40919 132.742 2.40705H134.618C134.675 2.40775 134.731 2.42552 134.778 2.45811C134.826 2.49069 134.862 2.53662 134.884 2.59005ZM21.6626 4.9625e-05C24.4306 -0.00995037 26.9756 1.49205 28.2766 3.90405V3.90105C31.6236 10.175 27.0946 16.495 21.1036 16.495H16.4996C15.9296 16.496 15.3826 16.271 14.9766 15.871L10.4116 11.339C10.3364 11.265 10.2788 11.175 10.243 11.0758C10.2072 10.9765 10.1941 10.8704 10.2048 10.7654C10.2154 10.6604 10.2495 10.5592 10.3045 10.4691C10.3596 10.379 10.4341 10.3025 10.5226 10.245C10.6401 10.1657 10.7789 10.1238 10.9206 10.125H21.1006C22.1526 10.115 22.9966 9.26505 22.9856 8.22705C22.9817 7.9785 22.9288 7.73316 22.83 7.50508C22.7311 7.27701 22.5882 7.07067 22.4095 6.8979C22.2308 6.72512 22.0198 6.5893 21.7885 6.49821C21.5572 6.40712 21.3102 6.36255 21.0616 6.36705H6.29565C5.72565 6.36705 5.17565 6.14305 4.77365 5.74205L0.21065 1.21405C0.135519 1.14016 0.0779096 1.05036 0.0420574 0.951272C0.00620522 0.852181 -0.00697716 0.746312 0.00347985 0.641455C0.0139369 0.536597 0.0477671 0.435417 0.102482 0.345357C0.157198 0.255297 0.231406 0.178649 0.31965 0.12105C0.436823 0.0418652 0.575233 2.83679e-05 0.71665 0.00104955L21.6626 4.9625e-05Z" fill="var(--fill-0, #0A1D08)"/>
</svg></svg>