<svg xmlns="http://www.w3.org/2000/svg" width="412" height="59" viewBox="0 0 102.9 14.7"><svg x="28.812000000000005" y="3.1678499999999996" width="55.89528000000001" height="8.6436" viewBox="0 0 55.8914 8.6436" overflow="visible">
<path id="Vector" fill-rule="evenodd" clip-rule="evenodd" d="M7.15053 4.3218C7.15053 2.0188 5.36203 0.1876 2.99813 0.1876L0.200929 0.1953C0.174151 0.195573 0.147694 0.201142 0.123077 0.211685C0.0984606 0.222229 0.0761716 0.237539 0.0574976 0.256733C0.0388237 0.275928 0.0241313 0.298627 0.0142683 0.323524C0.00440542 0.348422 -0.000432744 0.375024 3.03653e-05 0.4018V8.2607C-0.000339587 8.28742 0.00456919 8.31394 0.014474 8.33876C0.0243787 8.36358 0.0390839 8.38619 0.0577486 8.40531C0.0764134 8.42443 0.0986698 8.43968 0.12324 8.45018C0.14781 8.46068 0.174211 8.46623 0.200929 8.4665H2.99813C5.36203 8.4665 7.15053 6.6248 7.15053 4.3225M3.93753 6.6654C3.64102 6.79515 3.32174 6.86485 2.99813 6.8705H1.72973V1.7822H2.99813C3.32267 1.7813 3.64396 1.84678 3.94226 1.97463C4.24056 2.10247 4.50956 2.28997 4.73273 2.5256C4.9597 2.76509 5.13713 3.04705 5.25485 3.35529C5.37257 3.66353 5.42827 3.99198 5.41873 4.3218C5.42875 4.98586 5.17909 5.6276 4.72293 6.1103C4.50031 6.34515 4.23337 6.53358 3.93753 6.6647M17.6351 4.3218C17.6351 1.9607 15.7332 0 13.2447 0C10.773 0 8.86973 1.9516 8.86973 4.3218C8.86973 6.692 10.7562 8.6436 13.2447 8.6436C15.7332 8.6436 17.6351 6.6829 17.6351 4.3218ZM15.701 5.3739C15.288 6.3896 14.3178 7.0504 13.244 7.0469C11.781 7.0399 10.5994 5.8219 10.5994 4.3218C10.6015 3.2207 11.2497 2.2288 12.2416 1.8102C12.7273 1.60536 13.2636 1.5527 13.7798 1.65918C14.296 1.76567 14.7677 2.02629 15.1326 2.4066C15.5042 2.79322 15.7557 3.27933 15.8566 3.80601C15.9575 4.33269 15.9035 4.87732 15.701 5.3739ZM28.0616 4.3218C28.0616 1.9516 26.1597 0 23.6796 0C21.1911 0 19.2885 1.9516 19.2885 4.3218C19.2885 6.692 21.2065 8.6436 23.6789 8.6436C26.1513 8.6436 28.0616 6.6927 28.0616 4.3218ZM26.3263 4.3239C26.3277 5.8247 25.1433 7.0427 23.6796 7.0469C23.3288 7.04628 22.9817 6.97534 22.6587 6.83827C22.3358 6.70121 22.0436 6.50081 21.7994 6.2489C21.2983 5.73273 21.0188 5.04119 21.0203 4.3218C21.0224 2.8203 22.2103 1.6058 23.6747 1.6058C25.1377 1.6058 26.3242 2.8217 26.3263 4.3239ZM30.5459 0.1953C30.5191 0.195573 30.4927 0.201142 30.4681 0.211685C30.4435 0.222229 30.4212 0.237539 30.4025 0.256733C30.3838 0.275928 30.3691 0.298627 30.3593 0.323524C30.3494 0.348422 30.3446 0.375024 30.345 0.4018L30.3548 8.2544C30.3544 8.28112 30.3592 8.30766 30.369 8.33252C30.3788 8.35737 30.3934 8.38004 30.412 8.39922C30.4306 8.41841 30.4529 8.43373 30.4774 8.44432C30.5019 8.4549 30.5283 8.46054 30.555 8.4609H31.8682C31.8949 8.46054 31.9213 8.4549 31.9459 8.44432C31.9704 8.43373 31.9926 8.41841 32.0112 8.39922C32.0298 8.38004 32.0444 8.35737 32.0543 8.33252C32.0641 8.30766 32.0689 8.28112 32.0684 8.2544V5.579H33.5685L35.0651 8.365C35.0821 8.39874 35.108 8.4271 35.1402 8.44689C35.1724 8.46667 35.2094 8.4771 35.2471 8.477H36.6107C36.6487 8.48049 36.6869 8.47281 36.7206 8.4549C36.7543 8.437 36.7821 8.40964 36.8004 8.3762C36.8198 8.34241 36.8295 8.3039 36.8282 8.26496C36.827 8.22602 36.8149 8.18819 36.7934 8.1557L35.2394 5.3403C36.1333 4.8818 36.6926 3.9403 36.68 2.9162C36.68 1.4014 35.518 0.1953 33.9129 0.1953H30.5459ZM34.2783 3.9053C34.1444 3.9557 34.006 3.97787 33.8632 3.9718H32.0747V1.7822H33.8632V1.7843C34.009 1.77981 34.1542 1.80575 34.2894 1.86046C34.4246 1.91518 34.547 1.99748 34.6486 2.1021C34.7522 2.20845 34.8331 2.33467 34.8865 2.47314C34.9399 2.61162 34.9647 2.75948 34.9594 2.9078C34.9587 3.05168 34.9294 3.19397 34.8731 3.32641C34.8169 3.45884 34.7349 3.57876 34.6318 3.6792C34.5304 3.77758 34.4102 3.85449 34.2783 3.9053ZM46.6102 4.3652C46.6102 2.058 44.8217 0.2247 42.4578 0.2247L39.6683 0.2338C39.6416 0.234164 39.6151 0.239823 39.5905 0.250451C39.5659 0.261079 39.5437 0.276466 39.5251 0.295726C39.5065 0.314986 39.4919 0.337737 39.4821 0.36267C39.4723 0.387603 39.4676 0.414224 39.4681 0.441V8.2999C39.4676 8.33998 39.479 8.37931 39.5008 8.41295C39.5226 8.44658 39.5538 8.47301 39.5906 8.4889C39.6152 8.4994 39.6416 8.5051 39.6683 8.5057H42.4578C44.8217 8.5057 46.6102 6.6717 46.6102 4.3652ZM43.3972 6.7053C43.1004 6.8355 42.7812 6.9048 42.4578 6.909H41.1901V1.8214H42.4585C42.7836 1.82021 43.1055 1.88561 43.4043 2.01359C43.7031 2.14157 43.9725 2.3294 44.1959 2.5655C44.4233 2.80521 44.6008 3.08765 44.7182 3.39646C44.8356 3.70527 44.8905 4.0343 44.8798 4.3645C44.8895 5.02842 44.6396 5.66988 44.1833 6.1523C43.9607 6.3875 43.6933 6.5751 43.3972 6.7053ZM49.686 8.3167L50.3286 6.5051H53.4366L54.0785 8.316C54.0913 8.35874 54.118 8.39596 54.1545 8.42171C54.1909 8.44747 54.2349 8.46028 54.2794 8.4581H55.6717C55.7071 8.46168 55.7428 8.45556 55.775 8.4404C55.8072 8.42523 55.8347 8.40158 55.8544 8.372C55.8749 8.34217 55.8874 8.30755 55.8906 8.27149C55.8938 8.23543 55.8876 8.19916 55.8726 8.1662L52.8626 0.315C52.8487 0.273439 52.8215 0.237619 52.7852 0.213073C52.7489 0.188528 52.7055 0.176624 52.6617 0.1792H51.1028C51.0591 0.176742 51.0158 0.188694 50.9795 0.213223C50.9432 0.237752 50.9159 0.273504 50.9019 0.315L47.8919 8.1662C47.869 8.21557 47.8663 8.27197 47.8845 8.32328C47.9027 8.37458 47.9403 8.41671 47.9892 8.4406C48.0219 8.45553 48.0562 8.4616 48.0921 8.4588H49.4858C49.5301 8.46022 49.5737 8.4471 49.6098 8.42144C49.646 8.39578 49.6728 8.359 49.686 8.3167ZM50.904 4.9679L51.8854 2.2477L52.8647 4.9679H50.904Z" fill="var(--fill-0, #0A1D08)"/>
</svg><svg x="1.6464" y="1.6684499999999998" width="99.6072" height="11.54685" viewBox="0 0 99.6056 11.5465" overflow="visible">
<path id="Vector" d="M87.4774 1.49943C85.7477 1.49943 84.6515 2.62363 84.6515 3.92353L84.6508 3.93613C84.6508 5.65463 86.0305 6.07533 87.1869 6.42743C88.0206 6.68083 88.7381 6.89993 88.7381 7.54393C88.7381 8.13683 88.1683 8.61003 87.3038 8.61003C86.6424 8.6026 86.0098 8.33828 85.5398 7.87293C85.5212 7.85292 85.4986 7.83696 85.4736 7.82604C85.4485 7.81513 85.4215 7.80949 85.3942 7.80949C85.3668 7.80949 85.3398 7.81513 85.3148 7.82604C85.2897 7.83696 85.2672 7.85292 85.2486 7.87293L84.5024 8.63873C84.4819 8.65825 84.4656 8.68171 84.4544 8.70769C84.4432 8.73367 84.4374 8.76165 84.4373 8.78993C84.4374 8.81822 84.4432 8.8462 84.4544 8.87218C84.4656 8.89816 84.4819 8.92162 84.5024 8.94113C84.8834 9.3267 85.338 9.63177 85.8392 9.83824C86.3404 10.0447 86.8779 10.1484 87.42 10.143C89.3723 10.143 90.4762 9.00903 90.4783 7.51103C90.4783 5.79254 89.0972 5.37183 87.9401 5.01903C87.1064 4.76563 86.3882 4.54723 86.3882 3.90323C86.3882 3.42793 86.8999 3.01633 87.5922 3.01633C88.0903 3.0238 88.5678 3.21673 88.9313 3.55743C88.9496 3.57656 88.9717 3.59176 88.9961 3.60211C89.0206 3.61246 89.0468 3.61774 89.0734 3.61763C89.0999 3.61774 89.1262 3.61246 89.1506 3.60211C89.175 3.59176 89.1971 3.57656 89.2155 3.55743L89.9876 2.77133C90.0079 2.75174 90.0241 2.72826 90.0351 2.70228C90.0461 2.6763 90.0518 2.64836 90.0518 2.62013C90.0518 2.59191 90.0461 2.56397 90.0351 2.53799C90.0241 2.51201 90.0079 2.48852 89.9876 2.46893C89.3114 1.82748 88.4092 1.47904 87.4774 1.49943ZM94.4186 1.81303C94.428 1.8376 94.4328 1.86372 94.4326 1.89003V4.99803H97.8941V1.89003C97.8935 1.83667 97.914 1.78523 97.951 1.74685C97.9881 1.70846 98.0388 1.68622 98.0922 1.68493H99.4054C99.4456 1.68543 99.4848 1.69787 99.5179 1.72068C99.5511 1.74348 99.5767 1.77563 99.5916 1.81303C99.601 1.8376 99.6058 1.86372 99.6056 1.89003V9.74123C99.606 9.76795 99.6012 9.7945 99.5914 9.81935C99.5816 9.8442 99.5669 9.86687 99.5483 9.88606C99.5297 9.90524 99.5075 9.92056 99.483 9.93115C99.4585 9.94173 99.4321 9.94737 99.4054 9.94773H98.0922C98.0654 9.94737 98.0391 9.94173 98.0145 9.93115C97.99 9.92056 97.9678 9.90524 97.9492 9.88606C97.9306 9.86687 97.9159 9.8442 97.9061 9.81935C97.8963 9.7945 97.8915 9.76795 97.892 9.74123V6.58423H94.4326V9.74123C94.4329 9.76789 94.428 9.79436 94.4182 9.81914C94.4083 9.84391 94.3937 9.86649 94.3751 9.8856C94.3565 9.90471 94.3343 9.91998 94.3098 9.93052C94.2853 9.94106 94.259 9.94667 94.2324 9.94703H92.9192C92.8924 9.94667 92.8661 9.94103 92.8415 9.93045C92.817 9.91987 92.7948 9.90454 92.7762 9.88536C92.7576 9.86617 92.7429 9.8435 92.7331 9.81865C92.7233 9.7938 92.7185 9.76725 92.719 9.74053V1.89073C92.7182 1.86406 92.7229 1.83751 92.7328 1.81271C92.7426 1.78792 92.7575 1.7654 92.7764 1.74653C92.8143 1.70848 92.8654 1.68644 92.9192 1.68493H94.2324C94.2726 1.68543 94.3118 1.69787 94.3449 1.72068C94.3781 1.74348 94.4037 1.77563 94.4186 1.81303ZM15.1639 3.47375e-05C17.1015 -0.00696526 18.883 1.04443 19.7937 2.73283V2.73073C22.1366 7.12253 18.9663 11.5465 14.7726 11.5465H11.5498C11.1508 11.5472 10.7679 11.3897 10.4837 11.1097L7.28816 7.93733C7.2355 7.88551 7.19516 7.82253 7.1701 7.75303C7.14503 7.68354 7.13589 7.6093 7.14335 7.5358C7.15081 7.4623 7.17467 7.39141 7.21318 7.32837C7.25169 7.26532 7.30387 7.21173 7.36586 7.17153C7.44807 7.11597 7.54523 7.08668 7.64446 7.08753H14.7705C15.5069 7.08053 16.0977 6.48553 16.09 5.75893C16.0872 5.58495 16.0502 5.41321 15.981 5.25356C15.9118 5.09391 15.8118 4.94947 15.6867 4.82853C15.5616 4.70759 15.4138 4.61251 15.2519 4.54875C15.09 4.48498 14.9171 4.45378 14.7432 4.45694H4.40695C4.00795 4.45694 3.62295 4.30014 3.34155 4.01944L0.147455 0.849835C0.0948637 0.79811 0.0545367 0.735255 0.0294402 0.665891C0.00434366 0.596526 -0.00488401 0.522419 0.00243589 0.449018C0.0097558 0.375618 0.0334369 0.304792 0.0717377 0.24175C0.110038 0.178708 0.161985 0.125054 0.223755 0.0847348C0.305776 0.0293056 0.402663 1.98575e-05 0.501655 0.000734687L15.1639 3.47375e-05Z" fill="var(--fill-0, #0A1D08)"/>
</svg></svg>