<svg xmlns="http://www.w3.org/2000/svg" width="291" height="73" viewBox="0 0 72.8 18.2"><svg x="1.2376" y="3.5690199999999996" width="70.3976" height="13.8502" viewBox="0 0 70.4006 13.849" overflow="visible">
<path id="Vector" d="M64.7726 6.14342H68.7766C68.6639 5.03532 68.0206 4.29682 66.8152 4.29682C65.6896 4.29682 64.9812 5.01922 64.7726 6.14342ZM66.8159 10.9111C64.3722 10.9111 63.1178 9.11352 63.1178 6.91412C63.1178 4.71472 64.5647 2.91642 66.8474 2.91642C69.1301 2.91642 70.4006 4.68252 70.4006 6.70482C70.4006 6.94562 70.3852 7.28302 70.353 7.42722H64.7257C64.8062 8.66342 65.4978 9.53072 66.7347 9.53072C67.7483 9.53072 68.3587 9.06522 68.6163 8.16572H70.2564C69.8868 9.78762 68.7934 10.9111 66.8159 10.9111ZM54.4049 6.84972C54.4049 4.53762 55.8189 2.91572 57.9091 2.91572C59.3399 2.91572 60.2723 3.75082 60.6258 4.87502C60.6419 4.92332 60.6902 4.92332 60.6902 4.87502V3.04452H62.2022V9.81982C62.2022 12.2278 60.8673 13.849 58.2143 13.849C56.1563 13.849 54.8543 12.806 54.6618 11.2646H56.3012C56.43 11.9065 56.9123 12.4686 58.2472 12.4686C59.9349 12.4686 60.658 11.4088 60.6902 9.86812L60.7063 8.88812C60.7063 8.84052 60.658 8.84052 60.6419 8.88812C60.2723 10.0606 59.2279 10.783 57.9091 10.783C55.8189 10.783 54.4042 9.16112 54.4042 6.84902M60.4963 6.84902C60.4963 5.37202 59.6129 4.29612 58.2458 4.29612C56.7184 4.29612 56.0114 5.37202 56.0114 6.84902C56.0114 8.32602 56.7184 9.40122 58.2458 9.40122C59.6129 9.40122 60.4963 8.30922 60.4963 6.84902ZM49.9186 3.04452H51.3494L51.3333 4.87502C51.3333 4.92332 51.3823 4.92332 51.3977 4.87502C51.8002 3.71862 52.3147 2.91642 54.1144 2.91642V4.44102C52.0732 4.37732 51.4621 5.51692 51.4621 7.12202V10.7991H49.9186V3.04452ZM43.0054 6.91412C43.0054 8.39112 43.7292 9.53072 45.16 9.53072C46.5908 9.53072 47.3146 8.39112 47.3146 6.91412C47.3146 5.43712 46.5908 4.29682 45.16 4.29682C43.7292 4.29682 43.0054 5.43712 43.0054 6.91412ZM48.954 6.91412C48.954 9.12962 47.5232 10.9111 45.16 10.9111C42.7968 10.9111 41.366 9.12892 41.366 6.91412C41.366 4.69932 42.7968 2.91642 45.16 2.91642C47.5232 2.91642 48.954 4.69862 48.954 6.91342M37.411 10.7984V4.37662H36.221V3.04452H37.4432V2.85202C37.4432 0.990024 38.4722 -0.118076 41.1084 0.0100238V1.47162C39.469 1.31062 38.9545 1.88882 38.9545 3.04452H41.1084V4.37732H38.9545V10.7991L37.411 10.7984ZM30.1611 6.14272H34.1644C34.0524 5.03462 33.4084 4.29612 32.203 4.29612C31.0774 4.29612 30.3704 5.01852 30.1611 6.14272ZM32.203 10.9104C29.7593 10.9104 28.5056 9.11282 28.5056 6.91342C28.5056 4.71402 29.9525 2.91572 32.2352 2.91572C34.5179 2.91572 35.7884 4.68182 35.7884 6.70412C35.7884 6.94492 35.7723 7.28232 35.7394 7.42652H30.1128C30.1933 8.66272 30.8849 9.53002 32.1225 9.53002C33.1354 9.53002 33.7465 9.06452 34.0034 8.16502H35.6435C35.2739 9.78692 34.1805 10.9104 32.203 10.9104ZM21.3824 5.45322H23.6014C25.1764 5.45322 26.0612 4.77912 26.0612 3.47922C26.0612 2.30672 25.4172 1.63262 23.7134 1.63262H21.3824V5.45322ZM19.7262 10.7998V0.219324H23.6651C26.5113 0.219324 27.7167 1.43942 27.7167 3.31752C27.7167 4.71402 26.8326 6.04682 24.6458 6.14342C24.5975 6.14342 24.5975 6.20712 24.6458 6.20712C26.9131 6.46402 28.1024 8.40652 28.1024 10.7991H26.3664C26.3664 8.67952 25.434 6.86512 23.1674 6.86512H21.3824V10.7991L19.7262 10.7998ZM2.22064 0.101024C2.17934 0.0842239 2.18984 0.0240239 2.23394 0.0219239C3.30494 -0.0410761 4.38364 0.038724 5.02274 0.178024C6.15674 0.425124 7.17734 0.866824 7.88084 1.94692C8.18324 2.41102 8.40304 2.92272 8.47234 3.44772C8.47355 3.45575 8.47301 3.46394 8.47075 3.47174C8.46849 3.47954 8.46456 3.48675 8.45923 3.49287C8.4539 3.499 8.44731 3.50389 8.4399 3.50722C8.43249 3.51054 8.42445 3.51222 8.41634 3.51212H4.58384C4.56957 3.51215 4.55583 3.50673 4.54543 3.49698C4.53502 3.48722 4.52873 3.47386 4.52784 3.45962C4.44524 2.23042 3.77954 0.752024 2.22064 0.101024ZM12.2397 10.6962C12.2803 10.713 12.2705 10.7725 12.2264 10.7746C11.1554 10.8376 10.076 10.7578 9.43764 10.6185C8.30364 10.3714 7.28304 9.92972 6.57954 8.84962C6.27714 8.38552 6.05734 7.87452 5.98804 7.34882C5.98682 7.3408 5.98736 7.3326 5.98962 7.32481C5.99189 7.31701 5.99582 7.3098 6.00114 7.30367C6.00647 7.29755 6.01307 7.29265 6.02047 7.28933C6.02788 7.28601 6.03592 7.28433 6.04404 7.28442H9.87654C9.89104 7.28422 9.90505 7.28966 9.91562 7.29958C9.9262 7.3095 9.93251 7.32314 9.93324 7.33762C10.0151 8.56612 10.6808 10.0452 12.2397 10.6962ZM4.27794 3.87402C4.30174 3.83972 4.26674 3.79632 4.22894 3.81102C3.30494 4.18622 -0.711664 6.08882 0.110136 8.67322C0.832536 10.9244 4.66994 10.8292 5.55614 10.7774C5.59954 10.7746 5.60934 10.7144 5.56874 10.6983C3.98464 10.0382 3.32174 8.52552 3.25664 7.29352C3.20974 6.40172 3.44214 5.03742 4.27794 3.87402ZM10.1915 6.92252C10.167 6.95612 10.202 7.00022 10.2405 6.98482C11.1638 6.61032 15.1804 4.70772 14.3593 2.12332C13.6369 -0.127876 9.79884 -0.0333762 8.91334 0.0191238C8.86994 0.0219238 8.85944 0.0807237 8.90004 0.0982237C10.4848 0.757624 11.147 2.27102 11.2128 3.50232C11.2597 4.39412 11.028 5.75912 10.1915 6.92252Z" fill="var(--fill-0, #0A1D08)"/>
</svg></svg>