<svg xmlns="http://www.w3.org/2000/svg" width="452" height="116" viewBox="0 0 112.93 28.982"><svg x="74.88388300000001" y="1.6258902000000002" width="35.764931" height="20.953986" viewBox="0 0 35.7618 20.956" overflow="visible">
<path id="Vector" d="M24.3289 9.58806L27.3041 12.6582H35.7618V10.9352H27.461L34.6135 6.62489L33.7781 5.11683L26.6255 9.42616L30.7499 1.99276L29.3408 1.1303L25.1634 8.56469V0H23.4934V8.56469L19.369 1.1303L17.9069 1.99276L22.0313 9.42616L14.8788 5.11683L14.0433 6.62589L21.1959 10.9352H12.895V12.6582H21.3528L24.3289 9.58806ZM4.75105 15.8921L8.09198 11.5828L6.73482 10.5055L3.34093 15.0297H1.7749V6.84176H0V20.956H1.7749V16.7536H3.34093L6.52595 20.956H8.71859L4.75105 15.8921Z" fill="var(--fill-0, #0A1D08)"/>
</svg><svg x="1.682657" y="8.5178098" width="71.631499" height="14.328700799999998" viewBox="0 0 71.6286 14.3301" overflow="visible">
<path id="Vector" fill-rule="evenodd" clip-rule="evenodd" d="M35.481 5.49459C36.3685 4.41726 37.6217 3.82563 39.1357 3.82563C40.4929 3.82563 41.6412 4.30933 42.6336 5.33269C43.573 6.30209 44.0427 7.59529 44.0427 9.05039C44.0427 10.5585 43.573 11.7977 42.6336 12.8211C41.6942 13.8444 40.5449 14.3301 39.1357 14.3301C37.5697 14.3301 36.3685 13.7905 35.481 12.6592V14.1143H33.7061V0H35.481V5.49459ZM35.481 9.10436C35.481 10.1277 35.7938 10.9352 36.4204 11.5828C37.047 12.2284 37.8296 12.5522 38.8219 12.5522C39.8143 12.5522 40.5968 12.2284 41.2244 11.5828C41.8501 10.9352 42.1639 10.1277 42.1639 9.10436C42.1639 8.08099 41.8501 7.27249 41.2244 6.62589C40.5968 5.92633 39.7624 5.60253 38.8219 5.60253C37.8306 5.60253 37.099 5.92533 36.4204 6.62589C35.7948 7.27249 35.481 8.08099 35.481 9.10436ZM9.81492 2.4265C8.56169 1.18826 6.9427 0.541664 5.06386 0.541664H0V14.0633H5.06386C6.9427 14.0633 8.56169 13.4167 9.81492 12.1245C11.0675 10.832 11.6938 9.21562 11.6938 7.27549C11.6938 5.33669 11.0675 3.72069 9.81492 2.4275M8.45676 10.7783C7.56931 11.6938 6.42102 12.1785 5.06386 12.1785H1.87884V2.37453H5.06386C6.42102 2.37453 7.51734 2.85923 8.45676 3.77466C9.34521 4.69109 9.81492 5.87536 9.81492 7.27649C9.81492 8.67662 9.34521 9.86189 8.45676 10.7783ZM16.2369 14.2791C17.4372 14.2791 18.5335 13.7944 19.1601 12.932V14.0633H22.0313V12.3933H20.7791V3.98953H13.3137V5.76742H19.0042V7.54532H16.2379C15.1939 7.54532 14.3584 7.86846 13.7315 8.51472C13.0519 9.16132 12.7401 9.96882 12.7401 10.8853C12.7401 11.8547 13.0529 12.6622 13.7315 13.3088C14.4111 13.955 15.2466 14.2781 16.2379 14.2781M16.4468 12.6082C15.3505 12.6082 14.515 11.9076 14.515 10.8843C14.515 9.91485 15.3505 9.21429 16.4468 9.21429H19.0052V10.7234C19.0052 11.8537 17.9599 12.6082 16.4468 12.6082ZM52.1547 5.28173C53.1471 4.25836 54.4003 3.77366 55.8624 3.77366C57.3235 3.77366 58.5247 4.31333 59.5681 5.33569C60.5075 6.30509 61.0302 7.54432 61.0302 9.05339C61.0302 9.12834 61.0192 9.22628 61.0072 9.33121C60.9932 9.45314 60.9772 9.58406 60.9772 9.69899V9.75295L60.9262 9.80692H52.6244C52.7813 10.6154 53.1471 11.316 53.7217 11.8007C54.3276 12.3317 55.1088 12.6194 55.9143 12.6082C57.2715 12.6082 58.4198 11.9086 58.9425 10.7763V10.7234H60.8733L60.8213 10.8303C60.1427 12.932 58.159 14.2781 55.8614 14.2781C55.1743 14.2859 54.4926 14.1565 53.8561 13.8975C53.2196 13.6386 52.6412 13.2553 52.1547 12.7701C51.1633 11.7467 50.6936 10.5075 50.6936 8.99942C50.6936 7.54432 51.1633 6.30609 52.1547 5.28173ZM59.1503 8.19092C58.7856 6.57492 57.4804 5.49759 55.8624 5.49759C54.1914 5.49759 52.9382 6.52096 52.6244 8.19092H59.1503ZM65.8332 14.2791C67.0344 14.2791 68.1308 13.7944 68.7574 12.932V14.0633H71.6286V12.3933H70.3754V3.98953H62.91V5.76742H68.6005V7.54532H65.8332C64.7898 7.54532 63.9547 7.86846 63.3278 8.51472C62.6482 9.16132 62.3354 9.96882 62.3354 10.8853C62.3354 11.8547 62.6492 12.6622 63.3278 13.3088C64.0067 13.955 64.8418 14.2791 65.8332 14.2791ZM66.0431 12.6082C64.9457 12.6082 64.1103 11.9076 64.1103 10.8843C64.1103 9.91485 64.9457 9.21429 66.0421 9.21429H68.6005V10.7234C68.6005 11.8537 67.5571 12.6082 66.0431 12.6082Z" fill="var(--fill-0, #0A1D08)"/>
</svg><svg x="23.816937000000003" y="12.505733" width="28.255086" height="14.653299200000001" viewBox="0 0 28.2465 14.6529" overflow="visible">
<path id="Vector" d="M1.98477 0L5.1688 7.75719L8.35382 0H10.3376L8.30186 4.79503L4.07247 14.6529L2.45448 13.8984L4.17741 9.96582L0 0H1.98477ZM23.3375 10.0738H25.1124V1.83186H28.2465V0H23.3395L23.3375 10.0738Z" fill="var(--fill-0, #0A1D08)"/>
</svg></svg>