<svg xmlns="http://www.w3.org/2000/svg" width="428" height="80" viewBox="0 0 107 20"><svg x="1.9687999999999999" y="1.924" width="40.2427" height="15.552000000000001" viewBox="0 0 40.24 15.552" overflow="visible">
<path id="Vector" fill-rule="evenodd" clip-rule="evenodd" d="M12.602 1.101C12.7647 0.723667 12.946 0.357 13.146 0.000999928L13.15 0.00800002C14.61 0.254 16.035 0.692 17.38 1.309C19.7 4.701 20.855 8.531 20.429 12.949C18.8605 14.1081 17.1042 14.9886 15.237 15.552C14.8162 14.9871 14.4439 14.3876 14.124 13.76C14.734 13.53 15.319 13.253 15.879 12.921C15.73 12.8211 15.5865 12.7133 15.449 12.598C13.8253 13.3613 12.0532 13.757 10.259 13.757C8.46487 13.757 6.69278 13.3613 5.06904 12.598L5.02104 12.635C4.89704 12.731 4.77004 12.8263 4.64004 12.921C5.20004 13.248 5.78504 13.531 6.39004 13.756C6.07204 14.382 5.70004 14.983 5.27804 15.548C3.41068 14.9837 1.65437 14.1021 0.0860443 12.942C-0.273956 9.132 0.450044 5.27 3.12604 1.305C4.47472 0.687081 5.89848 0.248354 7.36104 0C7.56104 0.356 7.74505 0.724 7.90505 1.1C9.46208 0.867469 11.045 0.867469 12.602 1.1M4.99904 8.546C4.99904 9.68 5.83704 10.596 6.84904 10.596C7.87904 10.596 8.67704 9.676 8.69304 8.546C8.70904 7.416 7.88304 6.492 6.84404 6.492C5.80404 6.492 4.99904 7.413 4.99904 8.546ZM11.819 8.546C11.819 9.68 12.649 10.596 13.665 10.596C14.695 10.596 15.494 9.676 15.51 8.546C15.526 7.416 14.704 6.492 13.665 6.492C12.625 6.492 11.819 7.413 11.819 8.546ZM37.194 2.846C36.176 2.386 34.9307 2.15633 33.458 2.157H27.352V13.12H33.02C34.6174 13.122 35.9557 12.8767 37.035 12.384C38.0204 11.9741 38.8609 11.2795 39.449 10.389C39.976 9.546 40.249 8.569 40.239 7.575C40.2581 6.58498 39.9941 5.61011 39.478 4.765C38.9283 3.90909 38.1319 3.23999 37.194 2.846ZM35.244 9.588C34.7107 10.0833 33.9484 10.331 32.957 10.331H31.267V4.944H33.177C34.1357 4.946 34.8537 5.184 35.331 5.658C35.818 6.168 36.045 6.839 36.042 7.559C36.046 8.337 35.79 9.059 35.244 9.588Z" fill="var(--fill-0, #0A1D08)"/>
</svg><svg x="49.0702" y="5.468" width="20.61890000000001" height="9.894" viewBox="0 0 20.624 9.89486" overflow="visible">
<path id="Vector" d="M0 8.60334C0.71 9.03434 1.48 9.35634 2.286 9.55834C3.138 9.77834 4.014 9.88834 4.894 9.88734C6.42467 9.88934 7.602 9.61334 8.426 9.05934C8.81288 8.82342 9.13139 8.49048 9.34995 8.09354C9.5685 7.69659 9.67952 7.24941 9.672 6.79634C9.67067 5.93434 9.42033 5.27967 8.921 4.83234C8.421 4.385 7.66267 4.07167 6.646 3.89234L5.08 3.61034C4.79227 3.56417 4.51122 3.48325 4.243 3.36934C4.17527 3.33863 4.11803 3.28872 4.07839 3.22579C4.03875 3.16286 4.01845 3.08969 4.02 3.01534C4.02 2.682 4.51033 2.51534 5.491 2.51534C6.16 2.51334 6.826 2.60134 7.471 2.77434C8.06688 2.92687 8.63892 3.16073 9.171 3.46934V1.00934C8.60347 0.683183 7.99183 0.440681 7.355 0.289336C6.56599 0.0946674 5.75564 -7.49294e-05 4.943 0.00733569C4.07263 -0.0102072 3.20522 0.114431 2.375 0.376336C1.73008 0.568514 1.14718 0.92722 0.684998 1.41634C0.29467 1.84969 0.0818817 2.41416 0.0890007 2.99734C0.0590007 3.64834 0.301998 4.28234 0.759998 4.74434C1.212 5.18767 1.97633 5.53434 3.053 5.78434L4.933 6.20734C5.154 6.24534 5.364 6.33734 5.543 6.47334C5.59464 6.52443 5.63522 6.58559 5.66222 6.65303C5.68923 6.72046 5.70209 6.79272 5.7 6.86534C5.7 6.99534 5.603 7.12034 5.411 7.21834C5.141 7.33134 4.849 7.38234 4.556 7.36634C3.70924 7.35952 2.8679 7.23052 2.058 6.98334C1.31733 6.78666 0.619539 6.45438 0 6.00334V8.60334ZM11.343 7.44034C11.8295 8.22314 12.5355 8.84562 13.373 9.23034C14.3947 9.69526 15.5088 9.92164 16.631 9.89234C18.032 9.92234 19.414 9.56434 20.624 8.85834V6.08434C20.214 6.32434 19.774 6.51034 19.318 6.64134C18.817 6.79134 18.297 6.86634 17.774 6.86534C16.762 6.86534 15.9897 6.68534 15.457 6.32534C15.2125 6.18378 15.01 5.97999 14.8698 5.73471C14.7297 5.48943 14.6571 5.21141 14.6593 4.92894C14.6616 4.64646 14.7386 4.36963 14.8826 4.12659C15.0265 3.88356 15.2323 3.683 15.479 3.54534C16.0277 3.19067 16.7877 3.01334 17.759 3.01334C18.7688 3.00621 19.7577 3.3008 20.599 3.85934V0.989336C19.5657 0.331336 18.2663 0.00233558 16.701 0.00233558C15.5821 -0.0252284 14.4706 0.19147 13.444 0.637336C12.5998 1.00538 11.8814 1.61185 11.377 2.38234C10.9028 3.13666 10.6579 4.01246 10.672 4.90334C10.6572 5.79472 10.8895 6.6728 11.343 7.44034Z" fill="var(--fill-0, #0A1D08)"/>
</svg><svg x="70.7805" y="5.482" width="11.951899999999991" height="9.868000000000002" viewBox="0 0 11.9484 9.86924" overflow="visible">
<path id="Vector" fill-rule="evenodd" clip-rule="evenodd" d="M0.711679 7.42625C1.21641 8.2085 1.93477 8.8297 2.78168 9.21625V9.21125C3.79337 9.64537 4.88277 9.86924 5.98368 9.86924C7.08458 9.86924 8.17399 9.64537 9.18568 9.21125C10.0303 8.82614 10.7452 8.20437 11.2437 7.42125C11.7149 6.65426 11.959 5.76937 11.9477 4.86925C11.9636 3.97859 11.7189 3.10268 11.2437 2.34925C10.7392 1.5899 10.0268 0.991762 9.19168 0.626246C7.13313 -0.208749 4.83023 -0.208749 2.77168 0.626246C1.93402 0.995049 1.21927 1.59565 0.711679 2.35725C0.232548 3.10781 -0.0147527 3.98293 0.000680722 4.87325C-0.0104338 5.77461 0.236249 6.66038 0.711679 7.42625ZM8.11168 4.92525C8.12426 5.20302 8.07991 5.48043 7.98138 5.74044C7.88284 6.00045 7.73219 6.23758 7.53868 6.43725C7.33048 6.63396 7.08424 6.78601 6.8151 6.88403C6.54597 6.98206 6.25962 7.02399 5.97368 7.00725C5.68774 7.02237 5.40168 6.97969 5.13262 6.88176C4.86355 6.78382 4.61699 6.63264 4.40768 6.43725C4.21519 6.23698 4.0654 5.99969 3.96742 5.73978C3.86943 5.47986 3.8253 5.20274 3.83768 4.92525C3.82481 4.65041 3.8688 4.37587 3.96687 4.1188C4.06495 3.86174 4.21501 3.62767 4.40768 3.43125C4.83468 3.04425 5.39768 2.84325 5.97368 2.87425C6.25855 2.85752 6.54387 2.89821 6.81272 2.99389C7.08156 3.08958 7.32843 3.2383 7.53868 3.43125C7.93068 3.82625 8.13868 4.36925 8.11168 4.92525Z" fill="var(--fill-0, #0A1D08)"/>
</svg><svg x="84.1555" y="5.674" width="7.992899999999999" height="9.368" viewBox="0 0 7.98399 9.36744" overflow="visible">
<path id="Vector" d="M6.434 3.37045C6.97768 3.34739 7.5163 3.48326 7.98399 3.76144V0.375445C7.55195 0.123145 7.05927 -0.00650978 6.559 0.000445141C6.22394 -0.0060357 5.8913 0.058314 5.58283 0.189282C5.27437 0.32025 4.99704 0.514884 4.769 0.760445C4.30366 1.26578 3.967 2.05111 3.759 3.11645V0.207445H0V9.36744H3.837V6.48545C3.837 5.42078 4.06033 4.63545 4.507 4.12945C4.95566 3.62345 5.598 3.37011 6.434 3.36944" fill="var(--fill-0, #0A1D08)"/>
</svg><svg x="92.8332" y="3.7680000000000002" width="12.05889999999999" height="11.587999999999997" viewBox="0 0 12.0592 11.5889" overflow="visible">
<path id="Vector" fill-rule="evenodd" clip-rule="evenodd" d="M6.74218 10.979C7.41361 10.5671 7.93328 9.94844 8.22318 9.216V11.274H12.0592V0H8.22218V4.082C7.59552 2.49533 6.36885 1.702 4.54218 1.702C3.70653 1.68839 2.88399 1.91092 2.16918 2.344C1.47406 2.77703 0.915304 3.39749 0.557184 4.134C0.167184 4.938 -0.0228168 5.824 0.00218319 6.717C-0.0112654 7.57851 0.167399 8.43219 0.525186 9.216C0.854444 9.9256 1.3771 10.528 2.03318 10.954C2.71037 11.3853 3.5005 11.6057 4.30319 11.587C5.15662 11.6113 6.00032 11.4016 6.74218 10.979ZM8.24719 6.616C8.25758 6.89003 8.21065 7.16321 8.1094 7.41807C8.00815 7.67292 7.8548 7.90382 7.65918 8.096C7.4489 8.28949 7.202 8.4389 6.93304 8.53542C6.66408 8.63194 6.37851 8.67362 6.09319 8.658C5.81275 8.6717 5.53241 8.62902 5.26875 8.53249C5.0051 8.43596 4.76348 8.28753 4.55818 8.096C4.36396 7.90706 4.21147 7.67953 4.11054 7.42807C4.00961 7.1766 3.96249 6.90679 3.97218 6.636C3.96153 6.36742 4.00768 6.09961 4.10763 5.85009C4.20757 5.60057 4.35906 5.37496 4.55219 5.188C4.99103 4.83058 5.5397 4.63542 6.10568 4.63542C6.67167 4.63542 7.22033 4.83058 7.65918 5.188C8.05018 5.558 8.26419 6.078 8.24719 6.616Z" fill="var(--fill-0, #0A1D08)"/>
</svg><svg x="43.5276" y="3.422" width="3.830599999999994" height="11.67" viewBox="0 0 3.828 11.67" overflow="visible">
<path id="Vector" d="M3.828 1.719C3.828 0.769 2.971 0 1.915 0C0.859001 0 0.0019989 0.77 0.0019989 1.718C0.0019989 2.667 0.859001 3.436 1.915 3.436C2.971 3.436 3.828 2.667 3.828 1.719ZM3.828 4.619C3.22202 4.87368 2.57132 5.00486 1.914 5.00486C1.25668 5.00486 0.605975 4.87368 0 4.619V11.67H3.828V4.619Z" fill="var(--fill-0, #0A1D08)"/>
</svg></svg>