<svg xmlns="http://www.w3.org/2000/svg" width="235" height="73" viewBox="0 0 58.8 18.2"><svg x="1.1348399999999998" y="3.57084" width="56.389199999999995" height="13.344240000000001" viewBox="0 0 56.392 13.3448" overflow="visible">
<path id="Vector" d="M6.1075 0V4.5087H1.9656V0.000699949H0V10.7632H1.9656V6.4008H6.1068V10.7632H8.0738V0H6.1075ZM14.3654 7.2842C14.3654 7.71565 14.194 8.12944 13.8889 8.43452C13.5838 8.73961 13.1701 8.911 12.7386 8.911C12.3071 8.911 11.8934 8.73961 11.5883 8.43452C11.2832 8.12944 11.1118 7.71565 11.1118 7.2842V2.674H9.247V7.2842C9.247 8.2093 9.6145 9.09651 10.2686 9.75066C10.9228 10.4048 11.81 10.7723 12.7351 10.7723C13.6602 10.7723 14.5474 10.4048 15.2016 9.75066C15.8557 9.09651 16.2232 8.2093 16.2232 7.2842V2.674H14.3654V7.2842ZM28.182 3.15C28.182 2.205 28.8071 1.9047 29.491 1.9047C30.044 1.9047 30.772 2.3247 31.2501 2.835L32.4709 1.3951C31.8612 0.5698 30.625 0 29.6121 0C27.5891 0 26.1261 1.1851 26.1261 3.1493C26.1261 6.7935 30.5802 5.6364 30.5802 7.6762C30.5802 8.3055 29.9691 8.8606 29.2705 8.8606C28.1673 8.8606 27.8096 8.3216 27.3035 7.7518L25.9476 9.1609C26.8156 10.2249 27.8845 10.7653 29.1648 10.7653C31.087 10.7653 32.6333 9.5662 32.6333 7.6916C32.6333 3.6456 28.1785 4.9028 28.1785 3.1486M55.7361 9.044C54.6343 9.044 54.3207 8.5673 54.3207 7.8372V4.6053H56.0343V2.9673H54.32V0.8078L52.43 1.6562V8.2397C52.43 9.9232 53.592 10.7716 55.1845 10.7716C55.4351 10.7763 55.6836 10.7564 55.93 10.7121L56.392 9.0139C56.1834 9.0279 55.944 9.0426 55.7354 9.0426M21.4627 2.7286C20.5387 2.7286 19.8947 2.9967 19.2703 3.6078V0.0657999H17.4034V6.6318C17.4034 9.0895 19.18 10.7737 21.1771 10.7737C23.3926 10.7737 25.3414 9.0601 25.3414 6.7522C25.3414 4.473 23.548 2.73 21.4627 2.73M21.4508 8.8942C21.1724 8.8942 20.8968 8.83938 20.6397 8.73286C20.3825 8.62634 20.1488 8.47021 19.952 8.27338C19.7552 8.07656 19.5991 7.8429 19.4925 7.58574C19.386 7.32857 19.3312 7.05295 19.3312 6.7746C19.3312 6.49625 19.386 6.22063 19.4925 5.96346C19.5991 5.7063 19.7552 5.47264 19.952 5.27582C20.1488 5.07899 20.3825 4.92286 20.6397 4.81634C20.8968 4.70982 21.1724 4.655 21.4508 4.655C22.013 4.655 22.5521 4.87831 22.9496 5.27582C23.3471 5.67332 23.5704 6.21245 23.5704 6.7746C23.5704 7.33675 23.3471 7.87588 22.9496 8.27338C22.5521 8.67088 22.013 8.8942 21.4508 8.8942ZM41.7424 6.6542C41.7424 4.3421 39.7978 2.632 37.5781 2.632C35.5817 2.632 33.8044 4.3162 33.8044 6.7746V13.3448H35.6713V9.7972C36.2943 10.4076 36.9397 10.6764 37.8623 10.6764C39.9483 10.6764 41.7424 8.9334 41.7424 6.6542ZM39.9742 6.6304C39.9742 7.19246 39.7509 7.7315 39.3535 8.12894C38.956 8.52637 38.417 8.74965 37.855 8.74965C37.2929 8.74965 36.7539 8.52637 36.3564 8.12894C35.959 7.7315 35.7357 7.19246 35.7357 6.6304C35.7357 6.06834 35.959 5.5293 36.3564 5.13186C36.7539 4.73443 37.2929 4.51115 37.855 4.51115C38.417 4.51115 38.956 4.73443 39.3535 5.13186C39.7509 5.5293 39.9742 6.06834 39.9742 6.6304Z" fill="var(--fill-0, #0A1D08)"/>
</svg><svg x="37.355639999999994" y="0.9245599999999999" width="15.04692" height="15.75574" viewBox="0 0 15.0477 15.7542" overflow="visible">
<path id="Vector" d="M11.5542 5.1856V3.3096C11.8023 3.19401 12.0124 3.01019 12.1599 2.77963C12.3074 2.54908 12.3862 2.2813 12.3872 2.0076V1.9642C12.3872 1.1662 11.7404 0.518698 10.9424 0.518698H10.899C10.7092 0.518698 10.5213 0.556092 10.3459 0.628744C10.1706 0.701396 10.0113 0.807882 9.87713 0.942118C9.74295 1.07635 9.63654 1.23571 9.56398 1.41108C9.49141 1.58645 9.45411 1.77441 9.4542 1.9642V2.0069C9.45517 2.2806 9.53401 2.54838 9.68152 2.77893C9.82902 3.00949 10.0391 3.19331 10.2872 3.3089V5.1856C9.57441 5.29487 8.90311 5.59044 8.3412 6.0424L3.1962 2.0342C3.23307 1.90073 3.2522 1.7654 3.2536 1.6282C3.25388 1.30651 3.15877 0.991956 2.98031 0.724307C2.80185 0.456658 2.54804 0.247929 2.25096 0.124503C1.95389 0.00107833 1.6269 -0.0315006 1.31131 0.0308851C0.995731 0.0932707 0.705726 0.24782 0.477963 0.474996C0.2502 0.702172 0.0949044 0.991776 0.0317045 1.3072C-0.0314953 1.62262 0.000239491 1.9497 0.122898 2.24709C0.245556 2.54447 0.45363 2.79882 0.720818 2.97798C0.988005 3.15713 1.30231 3.25304 1.624 3.2536C1.90567 3.25216 2.18204 3.17686 2.4255 3.0352L7.4928 6.9783C7.03721 7.66595 6.79952 8.47497 6.81076 9.29977C6.822 10.1246 7.08165 10.9268 7.5558 11.6018L6.0144 13.1432C5.88986 13.1034 5.76013 13.0822 5.6294 13.0802C5.36503 13.0802 5.10659 13.1586 4.88675 13.3054C4.66691 13.4523 4.49554 13.661 4.39431 13.9052C4.29307 14.1495 4.26651 14.4182 4.31799 14.6775C4.36946 14.9368 4.49666 15.1751 4.6835 15.3621C4.87035 15.5491 5.10845 15.6766 5.36771 15.7283C5.62697 15.7801 5.89575 15.7538 6.14008 15.6528C6.38441 15.5518 6.59331 15.3807 6.74039 15.161C6.88747 14.9413 6.96612 14.683 6.9664 14.4186C6.96466 14.2879 6.94367 14.1582 6.9041 14.0336L8.4287 12.5076C8.92585 12.8903 9.50401 13.1542 10.1189 13.279C10.7338 13.4038 11.3691 13.3862 11.9761 13.2275C12.5831 13.0689 13.1458 12.7734 13.621 12.3638C14.0962 11.9541 14.4713 11.4411 14.7176 10.864C14.9639 10.287 15.0749 9.66122 15.042 9.03467C15.0092 8.40812 14.8333 7.7974 14.528 7.2493C14.2226 6.7012 13.7959 6.23025 13.2804 5.87255C12.765 5.51484 12.1745 5.27986 11.5542 5.1856ZM10.9221 11.3568C10.6406 11.3641 10.3606 11.3149 10.0984 11.2122C9.8363 11.1095 9.59737 10.9553 9.39574 10.7588C9.19411 10.5623 9.03386 10.3275 8.92445 10.0681C8.81503 9.80864 8.75866 9.52994 8.75866 9.2484C8.75866 8.96685 8.81503 8.68816 8.92445 8.42875C9.03386 8.16933 9.19411 7.93445 9.39574 7.73795C9.59737 7.54145 9.8363 7.38731 10.0984 7.28461C10.3606 7.18192 10.6406 7.13275 10.9221 7.14C11.4663 7.16191 11.981 7.39345 12.3584 7.78617C12.7359 8.17889 12.9468 8.70236 12.947 9.24704C12.9473 9.79172 12.7369 10.3154 12.3599 10.7085C11.9829 11.1016 11.4684 11.3336 10.9242 11.3561" fill="var(--fill-0, #0A1D08)"/>
</svg></svg>