<svg xmlns="http://www.w3.org/2000/svg" width="424" height="112" viewBox="0 0 106 28"><svg x="32.8918" y="7.266" width="71.3804" height="13.2356" viewBox="0 0 71.3761 13.236" overflow="visible">
<path id="Vector" d="M71.373 8.934H64.377C64.517 10.555 65.61 11.348 66.773 11.348C67.531 11.348 68.271 11.084 68.765 10.256H71.267C70.756 11.666 69.382 13.234 66.791 13.234C63.742 13.234 61.963 10.961 61.963 8.229C61.963 5.409 63.919 3.313 66.721 3.313C69.646 3.313 71.461 5.586 71.373 8.934ZM66.703 5.092C65.787 5.092 64.606 5.656 64.413 7.26H68.906C68.853 5.656 67.725 5.092 66.703 5.092ZM58.106 13.005V7.489C58.106 6.449 58.017 5.269 56.59 5.269C54.969 5.269 54.704 6.626 54.704 8.071V13.005H52.273V7.489C52.273 6.449 52.185 5.269 50.757 5.269C49.136 5.269 48.871 6.626 48.871 8.071V13.005H46.44V3.525H48.871V4.775C49.418 3.841 50.369 3.313 51.515 3.313C53.118 3.313 53.841 4.176 54.211 4.863C54.969 3.806 55.903 3.313 57.331 3.313C59.709 3.313 60.537 4.793 60.537 7.031V13.005H58.106ZM42.05 9.376V8.671C39.319 8.953 38.244 9.271 38.244 10.327C38.244 11.015 38.772 11.579 39.883 11.579C41.416 11.579 42.05 10.769 42.05 9.376ZM42.262 11.826C41.575 12.812 40.588 13.236 39.16 13.236C37.345 13.236 35.742 12.178 35.742 10.451C35.742 8.213 38.244 7.543 41.98 7.121V6.961C41.98 5.499 41.187 4.988 40.2 4.988C39.266 4.988 38.49 5.464 38.438 6.521H36.165C36.358 4.653 37.874 3.279 40.323 3.279C42.561 3.279 44.412 4.266 44.412 7.455C44.412 7.737 44.376 9.024 44.376 9.869C44.376 11.367 44.464 12.213 44.658 13.006H42.42C42.35 12.706 42.315 12.301 42.262 11.826ZM35.227 3.577V5.868C34.875 5.815 34.575 5.815 34.223 5.815C33.025 5.815 32.232 6.256 32.232 8.035V13.005H29.8V3.525H32.196V5.181C32.743 4.001 33.589 3.542 34.699 3.542C34.857 3.542 35.068 3.56 35.227 3.577ZM24.226 3.524V2.996C24.226 0.599 25.353 0.229 27.733 0.229H28.561V2.027H28.085C26.887 2.027 26.658 2.167 26.658 3.067V3.525H28.561V5.199H26.657V13.005H24.225V5.199H22.885V3.524H24.226ZM17.433 5.216C16.093 5.216 15.142 6.291 15.142 8.282C15.142 10.274 16.094 11.331 17.432 11.331C18.772 11.331 19.724 10.273 19.724 8.282C19.724 6.291 18.772 5.216 17.433 5.216ZM17.433 13.234C15.036 13.234 12.675 11.595 12.675 8.282C12.675 4.952 15.036 3.312 17.433 3.312C19.83 3.312 22.191 4.952 22.191 8.282C22.191 11.595 19.83 13.234 17.433 13.234ZM9.11 8.812H11.507C11.172 11.402 9.022 13.235 5.974 13.235C2.167 13.235 0 10.645 0 6.555C0 2.52 2.326 0 6.044 0C9.04 0 11.084 1.71 11.507 4.37H9.11C8.635 2.59 7.436 2.01 6.027 2.01C4.106 2.01 2.607 3.595 2.607 6.556C2.607 9.604 4.106 11.226 5.938 11.226C7.454 11.226 8.688 10.557 9.11 8.812Z" fill="var(--fill-0, #0A1D08)"/>
</svg><svg x="1.6324" y="2.9819999999999998" width="12.624599999999997" height="18.782400000000003" viewBox="0 0 12.627 18.7822" overflow="visible">
<path id="Vector" d="M10.523 0.363099L2.104 5.9741C0.942 6.7491 0 8.5091 0 9.9061V17.2931C0 18.6891 0.942 19.1931 2.104 18.4191L10.523 12.8081C11.685 12.0331 12.627 10.2731 12.627 8.8761V1.4891C12.627 0.0930995 11.685 -0.410901 10.523 0.363099Z" fill="var(--fill-0, #0A1D08)" fill-opacity="0.4"/>
</svg><svg x="10.4834" y="6.4344" width="12.635199999999998" height="18.782400000000003" viewBox="0 0 12.627 18.7831" overflow="visible">
<path id="Vector" d="M10.522 0.363067L2.104 5.97507C0.942 6.74907 0 8.50907 0 9.90607V17.2931C0 18.6901 0.942 19.1941 2.104 18.4201L10.523 12.8081C11.685 12.0341 12.627 10.2731 12.627 8.87707V1.49007C12.627 0.0930671 11.684 -0.410933 10.522 0.363067Z" fill="var(--fill-0, #0A1D08)"/>
</svg></svg>