<svg xmlns="http://www.w3.org/2000/svg" width="408" height="96" viewBox="0 0 102 24"><svg x="25.143" y="5.664000000000001" width="74.2152" height="12.5304" viewBox="0 0 74.213 12.5311" overflow="visible">
<path id="Vector" d="M0 11.249C0.0166667 11.065 0.0806661 10.8837 0.191999 10.705C0.309333 10.521 0.435 10.3787 0.569 10.278C1.073 10.623 1.619 10.904 2.191 11.115C2.74294 11.3201 3.32623 11.428 3.915 11.434C4.71233 11.434 5.348 11.2693 5.822 10.94C6.302 10.6047 6.54167 10.144 6.541 9.558C6.541 9.028 6.36267 8.59 6.006 8.244C5.63391 7.88348 5.19687 7.59676 4.718 7.399L2.694 6.546C1.98533 6.244 1.433 5.86733 1.037 5.416C0.647001 4.96267 0.452 4.40733 0.452 3.75C0.452 3.19733 0.597001 2.68667 0.887001 2.218C1.177 1.74933 1.58967 1.37567 2.125 1.097C2.66567 0.812333 3.307 0.67 4.049 0.67C4.68433 0.67 5.28367 0.750666 5.847 0.912C6.36167 1.056 6.86067 1.243 7.344 1.473C7.344 1.64633 7.29933 1.82767 7.21 2.017C7.13 2.196 7.01 2.353 6.86 2.477C6.41394 2.24603 5.94553 2.06107 5.462 1.925C5.02049 1.78738 4.56142 1.7143 4.099 1.708C3.39167 1.708 2.809 1.88667 2.351 2.244C2.13404 2.40706 1.95928 2.6197 1.84132 2.86414C1.72337 3.10857 1.66565 3.37769 1.673 3.649C1.673 4.11833 1.83767 4.492 2.167 4.77C2.51926 5.05372 2.91063 5.28511 3.329 5.457L5.287 6.277C5.72167 6.45567 6.12833 6.682 6.507 6.956C6.877 7.22 7.191 7.556 7.428 7.943C7.662 8.32767 7.779 8.777 7.779 9.291C7.779 9.90967 7.637 10.462 7.353 10.948C7.073 11.428 6.64367 11.8073 6.065 12.086C5.485 12.3647 4.75167 12.504 3.865 12.504C3.1593 12.5031 2.45846 12.3872 1.79 12.161C1.15259 11.9446 0.549713 11.6375 0 11.249ZM10.551 12.304C10.3636 12.3407 10.1729 12.3575 9.982 12.354C9.78579 12.3579 9.58971 12.3411 9.397 12.304V5.792C9.397 5.47933 9.347 5.26733 9.247 5.156C9.151 5.044 8.97233 4.98833 8.711 4.989H8.561C8.51178 4.77775 8.49726 4.55991 8.518 4.344C8.52933 4.27733 8.54333 4.202 8.56 4.118C8.744 4.09067 8.903 4.074 9.037 4.068C9.17033 4.05667 9.279 4.051 9.363 4.051H9.497C9.83167 4.051 10.091 4.15433 10.275 4.361C10.459 4.561 10.551 4.84267 10.551 5.206V12.304ZM8.877 1.942C8.877 1.696 8.916 1.495 8.994 1.339C9.09534 1.28123 9.20601 1.24163 9.321 1.222C9.461 1.18867 9.592 1.172 9.714 1.172C9.82467 1.172 9.956 1.18867 10.108 1.222C10.2236 1.23687 10.3345 1.2768 10.433 1.339C10.4663 1.40633 10.4943 1.49833 10.517 1.615C10.539 1.733 10.55 1.842 10.55 1.942C10.55 2.188 10.511 2.38867 10.433 2.544C10.377 2.594 10.2713 2.636 10.116 2.67C9.95933 2.698 9.82533 2.712 9.714 2.712C9.59133 2.712 9.46 2.698 9.32 2.67C9.20566 2.64554 9.09595 2.60301 8.995 2.544C8.90999 2.35505 8.86962 2.14906 8.877 1.942ZM34.462 11.4C34.5293 11.5673 34.563 11.7793 34.563 12.036V12.161C34.5642 12.1984 34.5585 12.2357 34.546 12.271C34.3515 12.2971 34.1564 12.3191 33.961 12.337C33.7606 12.357 33.5594 12.3683 33.358 12.371C32.9567 12.371 32.628 12.2567 32.372 12.028C32.1147 11.7987 31.986 11.4667 31.986 11.032V0.0999999L32.087 0H32.505C32.773 0 32.943 0.07 33.015 0.21C33.0883 0.343333 33.1247 0.541333 33.124 0.804V10.697C33.124 10.931 33.1773 11.1067 33.284 11.224C33.3887 11.3413 33.542 11.4 33.744 11.4H34.462ZM51.998 6.587C51.998 7.23967 51.9533 7.86733 51.864 8.47C51.7851 9.05294 51.6097 9.61867 51.345 10.144C51.089 10.664 50.7043 11.13 50.191 11.542C49.9186 11.7543 49.6137 11.9211 49.288 12.036C48.9371 12.1586 48.5755 12.2483 48.208 12.304C47.8789 12.3567 47.5463 12.3845 47.213 12.387C46.365 12.387 45.5173 12.376 44.67 12.354L43.324 12.321L43.214 12.211V0.963L43.324 0.853C43.804 0.837 44.25 0.823666 44.662 0.813C45.074 0.801666 45.4867 0.796 45.9 0.796H47.213C47.9216 0.802444 48.6247 0.921253 49.296 1.148C49.6473 1.27 49.9457 1.43167 50.191 1.633C50.6983 2.04567 51.0803 2.51433 51.337 3.039C51.599 3.55833 51.7747 4.119 51.864 4.721C51.9533 5.31833 51.998 5.94033 51.998 6.587ZM49.798 6.587C49.798 6.113 49.7673 5.636 49.706 5.156C49.6567 4.69997 49.538 4.25415 49.354 3.834C49.188 3.44072 48.9159 3.1014 48.568 2.854C48.228 2.60867 47.7733 2.486 47.204 2.486C46.8873 2.486 46.5837 2.48333 46.293 2.478C45.975 2.47197 45.657 2.46897 45.339 2.469V10.697C45.691 10.6917 46.009 10.6917 46.293 10.697H47.204C47.774 10.697 48.2287 10.5743 48.568 10.329C48.913 10.079 49.185 9.741 49.355 9.349C49.5377 8.92571 49.6556 8.47737 49.705 8.019C49.767 7.533 49.798 7.05567 49.798 6.587ZM59.982 8.153C59.982 9.023 59.8427 9.78733 59.564 10.446C59.2847 11.104 58.869 11.6173 58.317 11.986C57.7657 12.3487 57.0827 12.53 56.268 12.53C55.4547 12.53 54.7713 12.3457 54.218 11.977C53.6713 11.609 53.259 11.0957 52.981 10.437C52.7023 9.779 52.563 9.01767 52.563 8.153C52.563 7.28233 52.7023 6.52033 52.981 5.867C53.2657 5.209 53.681 4.69567 54.227 4.327C54.7797 3.959 55.46 3.775 56.268 3.775C57.088 3.775 57.774 3.96167 58.326 4.335C58.878 4.70367 59.2907 5.217 59.564 5.875C59.8427 6.52833 59.982 7.28767 59.982 8.153ZM54.704 8.153C54.704 8.649 54.746 9.112 54.83 9.542C54.9133 9.966 55.0693 10.309 55.298 10.571C55.5267 10.8277 55.8527 10.956 56.276 10.956C56.706 10.956 57.0327 10.8277 57.256 10.571C57.4787 10.3083 57.632 9.965 57.716 9.541C57.804 9.11167 57.8483 8.649 57.849 8.153C57.849 7.661 57.8043 7.20033 57.715 6.771C57.631 6.34167 57.4777 5.996 57.255 5.734C57.0323 5.47133 56.706 5.34 56.276 5.34C55.8527 5.34 55.5267 5.471 55.298 5.733C55.0687 5.99633 54.9127 6.34233 54.83 6.771C54.746 7.201 54.704 7.66167 54.704 8.153ZM65.436 7.399C65.4498 7.04823 65.4216 6.69707 65.352 6.353C65.2913 6.03967 65.166 5.79433 64.976 5.617C64.792 5.43767 64.5187 5.34833 64.156 5.349C63.682 5.349 63.3253 5.583 63.086 6.051C62.8513 6.51433 62.734 7.22867 62.734 8.194C62.734 9.148 62.8817 9.83467 63.177 10.254C63.479 10.666 63.9057 10.872 64.457 10.872C64.8143 10.872 65.1573 10.7913 65.486 10.63C65.8093 10.4747 66.116 10.2903 66.406 10.077C66.5853 10.1837 66.7553 10.357 66.916 10.597C67.0833 10.837 67.1893 11.0657 67.234 11.283C66.84 11.6747 66.3705 11.9823 65.854 12.187C65.3086 12.416 64.7226 12.5327 64.131 12.53C63.5283 12.5293 63.004 12.4207 62.558 12.204C62.1249 11.9921 61.7493 11.6789 61.463 11.291C61.1627 10.8745 60.9414 10.4064 60.81 9.91C60.6665 9.34942 60.5963 8.77263 60.601 8.194C60.601 7.14 60.7767 6.289 61.128 5.641C61.4793 4.99433 61.9283 4.523 62.475 4.227C63.0016 3.93235 63.5946 3.77678 64.198 3.775C64.6947 3.775 65.1353 3.84767 65.52 3.993C65.91 4.13767 66.2387 4.33267 66.506 4.578C66.7747 4.82467 66.9757 5.10633 67.109 5.423C67.2483 5.73633 67.318 6.063 67.318 6.403C67.318 6.749 67.2287 7.017 67.05 7.207C66.872 7.391 66.6153 7.483 66.28 7.483C66.1133 7.483 65.963 7.47733 65.829 7.466C65.6972 7.44923 65.5661 7.42621 65.436 7.399ZM67.806 11.71C67.8167 11.4767 67.8833 11.22 68.006 10.94C68.1287 10.656 68.2737 10.4357 68.441 10.279C68.7983 10.4697 69.175 10.637 69.571 10.781C69.957 10.924 70.364 10.997 70.775 10.999C71.177 10.999 71.4893 10.918 71.712 10.756C71.9407 10.5947 72.0577 10.388 72.063 10.136C72.0616 9.92584 71.9775 9.72468 71.829 9.576C71.6783 9.40867 71.444 9.26667 71.126 9.15L70.173 8.798C69.799 8.66515 69.4422 8.48823 69.11 8.271C68.802 8.06434 68.5399 7.79644 68.34 7.484C68.1507 7.17067 68.056 6.79667 68.056 6.362C68.056 5.832 68.1873 5.37467 68.45 4.99C68.712 4.59933 69.0743 4.30067 69.537 4.094C69.9997 3.882 70.5323 3.776 71.135 3.776C71.615 3.776 72.125 3.84033 72.665 3.969C73.2063 4.097 73.6497 4.24733 73.995 4.42C74.007 4.66667 73.957 4.94 73.845 5.24C73.733 5.54133 73.588 5.762 73.41 5.902C73.062 5.74818 72.7046 5.61658 72.34 5.508C71.9501 5.38546 71.5437 5.32341 71.135 5.324C70.8283 5.324 70.583 5.39933 70.399 5.55C70.313 5.61736 70.244 5.70391 70.1975 5.80271C70.151 5.90151 70.1282 6.00982 70.131 6.119C70.131 6.32033 70.2037 6.488 70.349 6.622C70.4937 6.75 70.7163 6.87 71.017 6.982L72.047 7.366C72.677 7.59 73.1953 7.90833 73.602 8.321C74.01 8.73433 74.2137 9.27533 74.213 9.944C74.213 10.7487 73.9033 11.382 73.284 11.844C72.6707 12.302 71.8427 12.531 70.8 12.531C70.2359 12.5343 69.6746 12.4524 69.135 12.288C68.6706 12.148 68.2252 11.954 67.806 11.71Z" fill="var(--fill-0, #0A1D08)"/>
</svg><svg x="60.2412" y="9.564" width="6.548399999999992" height="8.604" viewBox="0 0 6.54109 8.60403" overflow="visible">
<path id="Vector" fill-rule="evenodd" clip-rule="evenodd" d="M1.24308 4.653C1.25908 5.16367 1.32442 5.624 1.43908 6.034C1.57908 6.514 1.80775 6.89067 2.12508 7.164C2.44242 7.432 2.87742 7.566 3.43008 7.566C3.86478 7.56933 4.29712 7.50178 4.71009 7.366C5.11241 7.22832 5.50135 7.05427 5.87208 6.846C5.98342 6.946 6.07842 7.077 6.15709 7.239C6.23975 7.39633 6.28975 7.53867 6.30709 7.666C5.88132 7.95387 5.41662 8.17948 4.92708 8.336C4.3962 8.51526 3.83941 8.6058 3.27908 8.604C2.66042 8.604 2.13908 8.48967 1.71508 8.261C1.30439 8.03358 0.958752 7.70481 0.711086 7.306C0.451181 6.88099 0.267107 6.41404 0.167084 5.926C0.0535033 5.38611 -0.00247648 4.8357 8.40042e-05 4.284C8.40042e-05 3.45933 0.131086 2.726 0.393086 2.084C0.655752 1.43667 1.03509 0.928666 1.53109 0.559999C2.02709 0.186666 2.62642 0 3.32909 0C4.04309 0 4.63709 0.161666 5.11109 0.485C5.58709 0.804 5.95909 1.255 6.18109 1.782C6.42109 2.32333 6.54109 2.92333 6.54109 3.582C6.54109 3.78267 6.53542 3.96133 6.52408 4.118C6.51742 4.29733 6.50075 4.476 6.47409 4.654L1.24308 4.653ZM5.15309 2.209C5.28642 2.605 5.35308 3.04033 5.35308 3.515V3.749H1.24308C1.27508 2.94033 1.45175 2.279 1.77309 1.765C2.13575 1.191 2.65442 0.903667 3.32909 0.903C3.81442 0.903 4.20475 1.023 4.50009 1.263C4.80209 1.49767 5.01975 1.813 5.15309 2.209Z" fill="var(--fill-0, #0A1D08)"/>
</svg><svg x="37.668600000000005" y="9.6144" width="10.4856" height="8.4528" viewBox="0 0 10.488 8.454" overflow="visible">
<path id="Vector" d="M1.045 0.309C0.972335 0.169 0.802333 0.0993328 0.535 0.0999994H0.0999985L0 0.217V8.353C0.15 8.38633 0.344999 8.403 0.584999 8.403C0.812999 8.403 1.00267 8.38633 1.154 8.353V2.393C1.25133 2.263 1.357 2.14067 1.471 2.026C1.77767 1.71333 2.101 1.47333 2.441 1.306C2.78767 1.13867 3.111 1.055 3.411 1.055C3.84033 1.055 4.139 1.20567 4.307 1.507C4.48033 1.807 4.567 2.298 4.567 2.98V8.353C4.717 8.38633 4.912 8.403 5.152 8.403C5.38067 8.403 5.57 8.38633 5.72 8.353V2.578C5.72067 2.51133 5.71933 2.44533 5.716 2.38C5.82467 2.23667 5.94067 2.10467 6.064 1.984C6.376 1.67733 6.702 1.44567 7.042 1.289C7.382 1.13233 7.7 1.05433 7.996 1.055C8.42533 1.055 8.72367 1.203 8.891 1.499C9.06433 1.79433 9.151 2.28233 9.151 2.963V7.683C9.151 7.94033 9.19533 8.133 9.284 8.261C9.37867 8.38967 9.53467 8.454 9.752 8.454C9.886 8.454 10.02 8.42867 10.154 8.378C10.2759 8.34257 10.3895 8.28306 10.488 8.203C10.4104 7.99847 10.36 7.78465 10.338 7.567C10.3157 7.31094 10.3043 7.05403 10.304 6.797V2.578C10.3084 2.1382 10.2321 1.70131 10.079 1.289C9.94812 0.9178 9.71266 0.592386 9.401 0.351999C9.09433 0.117333 8.69867 0 8.214 0C7.85667 0 7.50767 0.0643332 7.167 0.193C6.81528 0.321643 6.48338 0.499041 6.181 0.719999C5.9403 0.889032 5.71235 1.07554 5.499 1.278C5.36723 0.90922 5.13009 0.587239 4.817 0.351999C4.51033 0.117333 4.11467 0 3.63 0C3.27267 0 2.91567 0.0726661 2.559 0.217999C2.01646 0.432864 1.53428 0.776394 1.154 1.219V0.903999C1.154 0.641999 1.11733 0.443667 1.044 0.309" fill="var(--fill-0, #0A1D08)"/>
</svg><svg x="2.4276" y="2.2560000000000002" width="53.5194" height="19.6896" viewBox="0 0 53.527 19.69" overflow="visible">
<path id="Vector" fill-rule="evenodd" clip-rule="evenodd" d="M48.149 7.668C48.0757 7.528 47.9057 7.45833 47.639 7.459H47.22L47.12 7.559V19.21L47.22 19.311H47.638C47.906 19.311 48.076 19.241 48.148 19.101C48.2213 18.9617 48.258 18.764 48.258 18.508V15.125C48.496 15.2783 48.741 15.4153 48.993 15.536C49.439 15.742 49.924 15.848 50.415 15.846C50.895 15.846 51.3747 15.698 51.854 15.402C52.334 15.1007 52.7327 14.632 53.05 13.996C53.368 13.36 53.527 12.5313 53.527 11.51C53.527 10.6793 53.421 9.94833 53.209 9.317C52.997 8.687 52.682 8.196 52.264 7.844C51.8507 7.48667 51.3407 7.308 50.734 7.308C50.226 7.308 49.766 7.41133 49.354 7.618C48.9373 7.82543 48.5647 8.11172 48.257 8.461V8.263C48.257 8.001 48.221 7.80267 48.149 7.668ZM48.257 9.693V14.03C48.455 14.1633 48.67 14.3 48.902 14.44C49.3367 14.6967 49.8077 14.825 50.315 14.825C50.655 14.825 50.9813 14.7133 51.294 14.49C51.606 14.2613 51.8593 13.904 52.054 13.418C52.2553 12.9327 52.356 12.2967 52.356 11.51C52.356 10.7507 52.2693 10.1397 52.096 9.677C51.924 9.20767 51.6957 8.86733 51.411 8.656C51.1588 8.44789 50.843 8.33248 50.516 8.329C50.17 8.329 49.8187 8.41833 49.462 8.597C49.0966 8.78525 48.7723 9.04427 48.508 9.359C48.417 9.4644 48.3325 9.576 48.257 9.693ZM2.18301 0.929C2.18301 0.416 2.59601 0 3.10601 0H12.744C13.3825 0.00238299 13.9939 0.258031 14.4441 0.710817C14.8942 1.1636 15.1463 1.77652 15.145 2.415V17.275C15.1463 17.9133 14.8944 18.5261 14.4444 18.9788C13.9945 19.4316 13.3833 19.6874 12.745 19.69H0.925009C0.803151 19.6899 0.682518 19.6657 0.570025 19.6188C0.457531 19.572 0.35539 19.5034 0.269457 19.417C0.183523 19.3306 0.115487 19.2281 0.0692499 19.1154C0.0230124 19.0026 -0.000517809 18.8819 8.64234e-06 18.76C8.64234e-06 18.248 0.413009 17.832 0.924009 17.832H12.744C13.05 17.832 13.298 17.582 13.298 17.274V2.416C13.2984 2.34295 13.2844 2.27054 13.2567 2.20292C13.2291 2.1353 13.1883 2.07381 13.1369 2.02197C13.0854 1.97013 13.0242 1.92896 12.9568 1.90082C12.8894 1.87268 12.8171 1.85813 12.744 1.858H3.10601C2.86059 1.85721 2.62553 1.75902 2.45246 1.58501C2.27939 1.41101 2.18248 1.17442 2.18301 0.929Z" fill="var(--fill-0, #0A1D08)"/>
</svg><svg x="3.5292" y="6.7128" width="10.720200000000009" height="10.773599999999998" viewBox="0 0 10.712 10.774" overflow="visible">
<path id="Vector" fill-rule="evenodd" clip-rule="evenodd" d="M4.063 0.93C4.063 0.417 4.477 0 4.987 0H9.789C10.299 0 10.712 0.417 10.712 0.93C10.7124 1.0516 10.6888 1.1721 10.6427 1.28459C10.5965 1.39709 10.5286 1.4994 10.4429 1.58566C10.3572 1.67193 10.2553 1.74047 10.1431 1.78737C10.0309 1.83427 9.91061 1.85861 9.789 1.859H4.987C4.86527 1.85861 4.7448 1.83424 4.63248 1.78729C4.52016 1.74034 4.41819 1.67173 4.33239 1.58537C4.24659 1.49901 4.17864 1.3966 4.13242 1.28398C4.08619 1.17136 4.06261 1.05074 4.063 0.929V0.93ZM2.16467e-06 5.388C2.16467e-06 4.875 0.413002 4.459 0.924002 4.459H9.789C10.299 4.459 10.712 4.875 10.712 5.388C10.7125 5.63342 10.6156 5.86901 10.4426 6.04301C10.2695 6.21702 10.0344 6.31521 9.789 6.316H0.924002C0.802398 6.31574 0.682036 6.29153 0.569789 6.24475C0.457542 6.19797 0.355608 6.12954 0.269806 6.04337C0.184005 5.95719 0.116017 5.85497 0.0697239 5.74252C0.0234308 5.63007 -0.000260763 5.5096 2.16467e-06 5.388ZM2.217 9.845C2.217 9.333 2.63 8.917 3.14 8.917H9.79C10.3 8.917 10.712 9.333 10.712 9.846C10.7125 10.0914 10.6156 10.327 10.4426 10.501C10.2695 10.675 10.0344 10.7732 9.789 10.774H3.139C2.89358 10.7729 2.65863 10.6745 2.48574 10.5003C2.31286 10.3261 2.2162 10.0904 2.217 9.845Z" fill="var(--fill-0, #0A1D08)"/>
</svg></svg>